<?xml version="1.0" ?><svg viewBox="0 0 1000 1000" xmlns="http://www.w3.org/2000/svg"><path d="m465.45 433a504.74 504.74 0 0 1 -102.33 13.13c-6.64.16-13.44.22-19.67 2.53-4.95 1.84-9.27 5-13.53 8.12l-98.73 72.4c-13.19 9.65-26.46 19.38-38.19 30.82a6.15 6.15 0 0 0 -2.1 3.19c-.69 4.13 5.75 4.86 9.77 3.67l92.71-27.56-5.38 3.2"/><path d="m465.28 432.31a542.63 542.63 0 0 1 -85.58 12c-7.1.4-14.22.53-21.33.78-6.57.24-13.06 1.07-19 4.1s-11.28 7.48-16.68 11.44l-17.7 13-71.29 52.27c-11.15 8.18-22.39 16.29-32.86 25.35-2.58 2.23-5.11 4.51-7.57 6.87-1.78 1.7-4.08 3.7-3.52 6.46.86 4.17 6.77 4.28 10 3.68a95.33 95.33 0 0 0 9.59-2.78l10.74-3.19 21.22-6.29 41.9-12.46 10.48-3.11-.9-2.12c-1.78 1.07-3.53 2.18-5.29 3.29a1.08 1.08 0 0 0 1.08 1.86c1.8-1 3.61-2.07 5.39-3.15a1.17 1.17 0 0 0 -.9-2.12l-82 24.37q-5.1 1.53-10.21 3a12 12 0 0 1 -6.56.32c-2.19-.6-3-2.23-1.43-4.15a72.65 72.65 0 0 1 7.28-6.86c10-8.9 20.82-16.83 31.6-24.75l69.06-50.65 17.27-12.67c5.55-4.07 11-8.28 16.69-12.18a42.78 42.78 0 0 1 8.52-4.74 36 36 0 0 1 9.33-2.16c6.75-.72 13.6-.58 20.38-.89a471.29 471.29 0 0 0 82.75-10.83q5-1.12 9.89-2.36c.84-.21.48-1.47-.35-1.29z"/><path d="m465.28 432.31a542.63 542.63 0 0 1 -85.58 12c-7.1.4-14.22.53-21.33.78-6.57.24-13.06 1.07-19 4.1s-11.28 7.48-16.68 11.44l-17.7 13-71.29 52.27c-11.15 8.18-22.39 16.29-32.86 25.35-2.58 2.23-5.11 4.51-7.57 6.87-1.78 1.7-4.08 3.7-3.52 6.46.86 4.17 6.77 4.28 10 3.68a95.33 95.33 0 0 0 9.59-2.78l10.74-3.19 21.22-6.29 41.9-12.46 10.48-3.11-.9-2.12c-1.78 1.07-3.53 2.18-5.29 3.29a1.08 1.08 0 0 0 1.08 1.86c1.8-1 3.61-2.07 5.39-3.15a1.17 1.17 0 0 0 -.9-2.12l-82 24.37q-5.1 1.53-10.21 3a12 12 0 0 1 -6.56.32c-2.19-.6-3-2.23-1.43-4.15a72.65 72.65 0 0 1 7.28-6.86c10-8.9 20.82-16.83 31.6-24.75l69.06-50.65 17.27-12.67c5.55-4.07 11-8.28 16.69-12.18a42.78 42.78 0 0 1 8.52-4.74 36 36 0 0 1 9.33-2.16c6.75-.72 13.6-.58 20.38-.89a471.29 471.29 0 0 0 82.75-10.83q5-1.12 9.89-2.36c.84-.21.48-1.47-.35-1.29z"/><path d="m277.26 546.69c.82-2.13 4.22-4.15 6.05-5.47 4.38-3.17 9-6.09 13.54-9 13.87-8.66 28.06-16.81 42.19-25 16.52-9.6 33.08-19.13 49.5-28.91 15.22-9.06 30.1-18.56 45-28.19 10.53-6.81 22-13.41 34.76-14.48s25.09 3.49 37.06 7c13.28 4 27.05 6.14 40.62 8.87q21 4.21 41.91 8.49 42.17 8.6 84.29 17.37c12.1 2.52 24.27 4.83 36.32 7.58 6.46 1.48 15.58 3.71 15.89 11.82.19 5.21-2.42 10.09-4.38 14.74-2.56 6.08-4.88 12.26-7 18.51-4.38 12.77-8 25.79-11.33 38.87-6.41 25.06-11.85 50.4-20 75-7.68 23.11-17.8 45.77-32.68 65.18a150.71 150.71 0 0 1 -51.58 42.38c-40 20.32-88.23 25.41-132.17 17.64-16.9-3-34-8.27-47.19-19.64-9.6-8.29-18.07-17.91-26.22-27.6-21.87-26-41.5-54-60.28-82.27-16.16-24.37-32.08-49.19-45.58-75.16-1.94-3.74-3.83-7.52-5.5-11.39-.69-1.61-3-.22-2.35 1.37 4.16 9.64 9.4 18.85 14.63 27.94 7.68 13.38 15.79 26.52 24.1 39.51 19 29.66 39 58.75 60.71 86.46a409.93 409.93 0 0 0 28.84 33.6c8.15 8.34 16.62 15.7 27.34 20.49 22.46 10 48.16 12.67 72.55 12.46a219.16 219.16 0 0 0 66.46-10.54c20.91-6.86 40.7-17.34 57.43-31.72 18.23-15.68 31.83-35.81 41.86-57.54 22.12-47.94 27.23-101.27 45.28-150.59 2.32-6.33 5.22-12.43 7.54-18.74 1.38-3.75 2.43-8.09 1.26-12-2-6.86-9.88-9.14-16-10.61-12.35-3-24.9-5.24-37.34-7.83q-21.19-4.41-42.39-8.78-43.2-8.91-86.43-17.61c-13.77-2.77-27.57-5.19-41-9.26-11.9-3.6-24.28-7.62-36.88-6-12.33 1.6-23.38 7.9-33.66 14.54-7.53 4.82-14.9 9.82-22.43 14.47-16 10-32.32 19.48-48.6 29-16.11 9.43-32.27 18.77-48.26 28.41-10.84 6.54-22 12.94-32 20.75-1.82 1.43-4.45 3.18-5.28 5.46-.33.91 1.09 1.28 1.44.4z"/><path d="m276.54 546.49c3.17-9 103-61.87 149.38-92.7 13.27-8.83 27.2-18.26 43.11-19.33 16.23-1.09 33.44 7.28 49.26 10.43q60.3 12 120.49 24.48 30.66 6.33 61.29 12.73c16.9 3.53 31.79 5.24 22.64 26-15.35 34.82-22.25 72.64-32 109.41s-23.15 73.83-48.76 102c-39.1 43-101.68 58.46-159.55 53.14-18.81-1.73-37.76-5.51-54.41-14.46-37.45-20.19-131.87-165.44-148.68-204.47" fill="#18c4ff"/><path d="m277.26 546.69c.82-2.13 4.22-4.15 6.05-5.47 4.38-3.17 9-6.09 13.54-9 13.87-8.66 28.06-16.81 42.19-25 16.52-9.6 33.08-19.13 49.5-28.91 15.22-9.06 30.1-18.56 45-28.19 10.53-6.81 22-13.41 34.76-14.48s25.09 3.49 37.06 7c13.28 4 27.05 6.14 40.62 8.87q21 4.21 41.91 8.49 42.17 8.6 84.29 17.37c12.1 2.52 24.27 4.83 36.32 7.58 6.46 1.48 15.58 3.71 15.89 11.82.19 5.21-2.42 10.09-4.38 14.74-2.56 6.08-4.88 12.26-7 18.51-4.38 12.77-8 25.79-11.33 38.87-6.41 25.06-11.85 50.4-20 75-7.68 23.11-17.8 45.77-32.68 65.18a150.71 150.71 0 0 1 -51.58 42.38c-40 20.32-88.23 25.41-132.17 17.64-16.9-3-34-8.27-47.19-19.64-9.6-8.29-18.07-17.91-26.22-27.6-21.87-26-41.5-54-60.28-82.27-16.16-24.37-32.08-49.19-45.58-75.16-1.94-3.74-3.83-7.52-5.5-11.39-.69-1.61-3-.22-2.35 1.37 4.16 9.64 9.4 18.85 14.63 27.94 7.68 13.38 15.79 26.52 24.1 39.51 19 29.66 39 58.75 60.71 86.46a409.93 409.93 0 0 0 28.84 33.6c8.15 8.34 16.62 15.7 27.34 20.49 22.46 10 48.16 12.67 72.55 12.46a219.16 219.16 0 0 0 66.46-10.54c20.91-6.86 40.7-17.34 57.43-31.72 18.23-15.68 31.83-35.81 41.86-57.54 22.12-47.94 27.23-101.27 45.28-150.59 2.32-6.33 5.22-12.43 7.54-18.74 1.38-3.75 2.43-8.09 1.26-12-2-6.86-9.88-9.14-16-10.61-12.35-3-24.9-5.24-37.34-7.83q-21.19-4.41-42.39-8.78-43.2-8.91-86.43-17.61c-13.77-2.77-27.57-5.19-41-9.26-11.9-3.6-24.28-7.62-36.88-6-12.33 1.6-23.38 7.9-33.66 14.54-7.53 4.82-14.9 9.82-22.43 14.47-16 10-32.32 19.48-48.6 29-16.11 9.43-32.27 18.77-48.26 28.41-10.84 6.54-22 12.94-32 20.75-1.82 1.43-4.45 3.18-5.28 5.46-.33.91 1.09 1.28 1.44.4z" fill="#18c4ff"/><path d="m700.07 482.1q-30.65-6.39-61.29-12.73-60.19-12.44-120.49-24.48c-15.82-3.15-33-11.52-49.26-10.43-.44 0-.87.09-1.31.14a2531.18 2531.18 0 0 0 4 325.17c.3 3.87.65 7.84 1.21 11.77q4.72.63 9.45 1.06c57.87 5.32 120.45-10.14 159.55-53.14 25.61-28.14 39-65.2 48.76-102s16.67-74.59 32-109.41c9.17-20.71-5.69-22.42-22.62-25.95z"/><path d="m700.32 481.18q-46.74-9.76-93.53-19.37-23.37-4.79-46.74-9.51l-23.38-4.71c-7.54-1.51-15.17-2.78-22.63-4.64-15.07-3.75-30.44-11-46.32-9.31a1 1 0 0 0 -1 1q-3.42 66.13-3.41 132.39 0 65.89 3.47 131.72 1 18.46 2.21 36.92c.81 12 1.31 24.2 3 36.16.07.45.54.65.92.7 29.53 3.9 60 2.44 88.8-5.21 27.65-7.33 53.95-20.67 74.6-40.67 22.79-22.06 37-51.1 46.95-80.83 11-32.7 17-66.75 26.8-99.78 2.49-8.4 5.22-16.73 8.33-24.92 1.61-4.21 3.33-8.38 5.12-12.52a33.8 33.8 0 0 0 2.77-9c.55-4.34-.63-8.5-4.12-11.29-3.72-3-8.67-4.2-13.22-5.23-2.87-.66-5.76-1.22-8.64-1.82-1.2-.25-1.71 1.59-.5 1.84 5.3 1.11 10.75 2 15.85 3.86 4 1.45 7.83 3.87 8.68 8.3 1.25 6.4-2.81 13-5.13 18.7-3.29 8-6.17 16.18-8.78 24.43-10.17 32.15-16.11 65.44-26 97.66-9.18 29.86-21.93 59.46-43.17 82.82-19.13 21-44.34 35.64-71.33 44.13-27.34 8.6-56.45 11.26-85 9-4-.32-8-.76-12-1.28l.92.7c-1.52-10.91-2-22-2.73-33s-1.42-21.92-2-32.88q-1.81-32.89-2.77-65.83-1.9-65.54-.41-131.1.84-37 2.76-73.9l-.95.95c14.26-1.66 28.26 4.34 41.8 8.08 7.13 2 14.43 3.25 21.68 4.7l23 4.63q46.61 9.4 93.16 19.06 26.19 5.42 52.39 10.89c1.23.25 1.76-1.59.55-1.84z"/><path d="m400.58 385.25c-62.09 18.69-174.88 42.34-235.52 65.29a10.51 10.51 0 0 0 -4.49 2.64c-1.78 2.11-1.65 5.2-1.23 7.93 2.58 16.85 12.1 32 23.65 44.5 11.15 12.13 26.18 22.92 42.58 21.4 5-.46 9.84-2.06 14.62-3.64l158.61-52.75c1.19-.39 2.49-2.06 1.32-2.52" fill="#fff"/><path d="m400.35 384.41c-13.66 4.06-27.44 7.73-41.23 11.3-16 4.14-32 8.12-48 12.12-16.88 4.21-33.77 8.42-50.62 12.78-16.17 4.18-32.32 8.48-48.37 13.11-14.05 4-28.05 8.3-41.81 13.27-1.53.55-3.07 1.12-4.6 1.69a18.31 18.31 0 0 0 -5.41 2.66c-3.57 3-2.85 8-2.1 12a75.54 75.54 0 0 0 10.19 25.66 112.55 112.55 0 0 0 17.34 21.63c6.45 6.3 13.85 11.85 22.29 15.18a40.42 40.42 0 0 0 12.78 2.82 43.92 43.92 0 0 0 14.82-2.22c10.56-3.19 21-6.93 31.46-10.42l63.44-21.11 63.47-21.13c1.34-.45 2.68-.89 4-1.35a7.37 7.37 0 0 0 2.72-1.34c1.25-1.13 1.84-3.15.09-4.13a1.36 1.36 0 0 0 -1.37 2.35l-.22-.71-.13.19c-.11.05-.32.31-.45.39a7.22 7.22 0 0 1 -1.64.56c-1.35.43-2.69.89-4 1.33l-7.81 2.6-15.15 5-31.04 10.36-61.55 20.45-31 10.3c-9.27 3.08-18.76 7.06-28.73 5.6-8.61-1.26-16.51-5.64-23.25-11a103.82 103.82 0 0 1 -18.47-19.45 84.93 84.93 0 0 1 -12.7-23.74c-1.34-4.08-2.67-8.59-2.72-12.91 0-2.14.55-4 2.47-5.17a29.41 29.41 0 0 1 4.79-2c13.09-4.85 26.41-9.11 39.77-13.12 15.35-4.6 30.8-8.87 46.28-13 16.31-4.36 32.67-8.56 49-12.74 15.77-4 31.55-8 47.3-12.14 13.92-3.64 27.83-7.34 41.66-11.36 3-.86 5.95-1.75 8.92-2.65 1.07-.32.62-2-.46-1.68z"/><path d="m319.79 559.45c4.34-52.62 27.4-102.69 60.24-144 13.05-16.42 27.86-31.79 45.82-42.63 22.29-13.47 48.36-19.34 74.23-22.44 8.53-1 17.17-1.77 25.7-.77a78.9 78.9 0 0 1 24.3 7.3c23 10.85 41.58 30 54.33 52.06s20 46.91 24.3 72c5.52 32.54 6.08 66.29-2 98.29s-25.28 62.19-51 82.83-60.48 30.91-92.81 24.18" fill="#fff"/><path d="m336.91 562.12a227.58 227.58 0 0 1 25.62-84.28c4.78-9 10.25-17.7 17.52-24.79 15.31-14.94 37.11-21.19 58.32-24 15.07-2 30.77-2.5 45.13 2.49s27.25 16.35 30.6 31.19c2.21 9.74.22 19.88-1.49 29.72a529.18 529.18 0 0 0 -5.94 135" fill="#18c4ff"/><path d="m337.65 562.12a228.16 228.16 0 0 1 25.11-82.58c6.38-12.08 14-23.65 25.18-31.77 10.4-7.55 22.66-12.07 35.11-14.9 13.64-3.1 28.07-4.91 42.06-3.85 13 1 25.87 5.1 35.66 14a41.39 41.39 0 0 1 10.14 13.75c2.87 6.48 3.35 13.58 2.76 20.56-.65 7.74-2.35 15.37-3.56 23s-2.21 15.06-3.07 22.61a529.65 529.65 0 0 0 -2.39 93.29q.36 5.63.9 11.22c.14 1.42 2.35 1.46 2.25 0-1.16-15.94-1.9-31.9-1.8-47.89s.93-31.95 2.48-47.86q1.14-11.78 2.82-23.48c1.12-7.86 2.59-15.65 3.8-23.49 1.15-7.5 1.82-15.22 0-22.68a39.4 39.4 0 0 0 -7.94-15.65c-18.14-22.3-49.73-21.84-75.55-17.48-12.83 2.17-25.62 5.75-37.05 12.1a71.44 71.44 0 0 0 -15.56 11.59 86.69 86.69 0 0 0 -12.83 16.75 209.68 209.68 0 0 0 -18.37 39.64 228.07 228.07 0 0 0 -10.37 42.56c-.5 3.5-.93 7-1.27 10.53-.09 1 1.39.94 1.49 0z" fill="#18c4ff"/><path d="m320.53 559.45a246.2 246.2 0 0 1 19-74.11 298.11 298.11 0 0 1 39-65.82c15.78-20.32 34.14-39.13 57.47-50.61a165.65 165.65 0 0 1 37.93-12.77c6.43-1.4 12.93-2.51 19.45-3.43a187.73 187.73 0 0 1 21.55-2.07c26.23-.64 50.16 13.62 67.84 32.08s29.38 41.83 36.67 66.2a277.59 277.59 0 0 1 11.52 82.66c-.35 26.52-5.26 53.14-16.41 77.32-10 21.72-24.94 41.51-44.42 55.59-19.91 14.4-44.34 22.8-69 22.48a96 96 0 0 1 -17.89-1.87c-1.53-.31-2.18 2-.65 2.34 24.64 5 50.11.79 72.48-10.47 22.15-11.14 40.16-29 53.2-49.92 13.72-22 21.67-47.18 24.81-72.88 3.51-28.8 1.06-58.24-5-86.53-5.64-26.21-15.28-52-31.42-73.66-14.76-19.76-35.21-36.63-59.2-43.57-14.2-4.11-28.66-2.8-43.09-.84a226.23 226.23 0 0 0 -39.95 8.76 137 137 0 0 0 -36 17.6 169 169 0 0 0 -29.06 26.34 296 296 0 0 0 -43.92 64.73c-11.58 23.25-20.09 48.1-24.19 73.78q-1.49 9.27-2.21 18.63c-.07 1 1.41.95 1.49 0z"/><path d="m421.45 186.82c-42.3-31.34-114.76-27.71-142.08 22.11-8.24 15-11.2 32.94-7.41 49.69 12.26 54.12 79.83 90.13 127.77 56"/><path d="m421.86 186.11a101.44 101.44 0 0 0 -31.16-15.56 114.14 114.14 0 0 0 -35.17-4.91 103.18 103.18 0 0 0 -34.5 6.41 84.13 84.13 0 0 0 -29.23 18.4 76.54 76.54 0 0 0 -20.37 35.17 72.85 72.85 0 0 0 2.74 44.59 91.1 91.1 0 0 0 19.61 30.49 96.16 96.16 0 0 0 29.45 20.77 85.24 85.24 0 0 0 34.51 7.77 72.33 72.33 0 0 0 34.72-8.62 78.41 78.41 0 0 0 7.88-5c1.25-.89.05-3-1.21-2.08a71 71 0 0 1 -33.13 12.69 78.92 78.92 0 0 1 -34-4 93 93 0 0 1 -52-45c-6.29-12.35-9.45-26.13-8.13-40a73.34 73.34 0 0 1 16.46-39.37 79.21 79.21 0 0 1 26.67-20.75 96.33 96.33 0 0 1 32.86-8.93 111.59 111.59 0 0 1 34.43 2.18 105.37 105.37 0 0 1 31.88 12.64q3.52 2.15 6.86 4.58c.86.63 1.68-.8.83-1.42z"/><path d="m544.92 856.57c-88.34-18.42-186.54-59.57-265.56-83.36-2.47-71.85 4.53-113.76 3.56-185.64-.05-3.86-8.73-38-6.38-41.08 4.27-5.58 12.9-4.09 19.63-2.07q116.83 35.13 235.83 61.97c3.4.76 6.93 1.52 10.31.73s6-2.9 8.71-5a1427 1427 0 0 1 169.6-113.71c9.22 6.1 2.67 31.3 2.73 42.35.32 61.39 8.19 110.49 8.51 171.88 0 6.51 0 13.41-3.47 18.94-2.16 3.47-5.44 6.06-8.67 8.57-59.2 46-109.86 89.06-174.84 126.4"/><path d="m545.14 855.75c-36-7.58-71.27-18.22-106.17-29.73-35.11-11.58-69.87-24.16-104.83-36.18-18.06-6.21-36.17-12.28-54.46-17.8l.9 1.17c-.82-24-.6-47.94.31-71.91.83-21.89 2.1-43.76 2.78-65.65q.56-18.28.54-36.56c0-4.35.37-8.93-.29-13.24-.35-2.32-.86-4.62-1.33-6.91-1.44-6.9-3-13.79-4.15-20.74a67 67 0 0 1 -1.09-8.59 7.17 7.17 0 0 1 .08-2.17c.43-1.37 2.71-2.58 4.17-3.05 4.88-1.58 10.39 0 15.1 1.45q9.42 2.82 18.85 5.6 19.27 5.67 38.64 11.12 38.7 10.91 77.65 20.91t78.16 19.09q9.8 2.27 19.6 4.49c5.79 1.3 11.47 2.67 17-.31a50.91 50.91 0 0 0 6.71-4.8q4.1-3.2 8.22-6.35 7.63-5.85 15.35-11.6a1429 1429 0 0 1 128.12-85.1q8.12-4.77 16.28-9.44h-1.2c3.64 2.54 4.15 7.9 4.31 11.95a107.9 107.9 0 0 1 -1 16.06 124.46 124.46 0 0 0 -1.17 14.67q.09 12.51.57 25c1.21 31.76 4.23 63.42 6.15 95.15 1 16.46 1.67 33 1.81 49.45.06 7.61.13 15.74-5.17 21.79-2.5 2.86-5.65 5.09-8.63 7.4q-4.85 3.78-9.68 7.57c-24.82 19.43-49.39 39.17-74.61 58.08a899.63 899.63 0 0 1 -77.66 52.78q-5.28 3.17-10.62 6.23a1.14 1.14 0 0 0 1.15 2 846 846 0 0 0 81.21-53.72c25.62-18.94 50.5-38.86 75.54-58.55 6.5-5.1 13-10.14 19.53-15.26a31.79 31.79 0 0 0 7.63-7.85 24.33 24.33 0 0 0 3.17-9.52c1.11-7.93.48-16.25.3-24.22-.19-8.58-.54-17.15-1-25.71-1.67-32.38-4.84-64.67-6.36-97.06q-.6-12.74-.84-25.49a139.81 139.81 0 0 1 .54-18.08c.63-5.61 1.39-11.23 1.53-16.88.12-4.57 0-9.58-2-13.77a10.41 10.41 0 0 0 -3.44-4 1.17 1.17 0 0 0 -1.2 0 1430.56 1430.56 0 0 0 -130.66 84.4q-15.57 11.31-30.83 23-3.51 2.68-7 5.41c-2.69 2.09-5.46 4.53-8.78 5.52s-7 .23-10.43-.53-7-1.58-10.46-2.37q-39.19-9-78.17-18.83-39.42-10-78.58-20.89-19.38-5.39-38.68-11-9.86-2.86-19.71-5.8c-5.65-1.68-11.33-3.83-17.19-4.65-5.44-.76-14.71.18-14.63 7.38.06 6.16 1.62 12.45 2.83 18.46s2.69 12.15 3.72 18.28c.68 4 .3 8.33.32 12.41q0 9.24-.12 18.49c-.67 45.8-4.59 91.47-4 137.29q.13 9.62.46 19.21a1.25 1.25 0 0 0 .89 1.17c33.52 10.12 66.53 21.82 99.6 33.31 35.36 12.29 70.8 24.43 106.78 34.8 19.57 5.65 39.32 10.75 59.27 14.89 1.06.22 1.52-1.4.45-1.63z"/><path d="m545.14 855.75c-36-7.58-71.27-18.22-106.17-29.73-35.11-11.58-69.87-24.16-104.83-36.18-18.06-6.21-36.17-12.28-54.46-17.8l.9 1.17c-.82-24-.6-47.94.31-71.91.83-21.89 2.1-43.76 2.78-65.65q.56-18.28.54-36.56c0-4.35.37-8.93-.29-13.24-.35-2.32-.86-4.62-1.33-6.91-1.44-6.9-3-13.79-4.15-20.74a67 67 0 0 1 -1.09-8.59 7.17 7.17 0 0 1 .08-2.17c.43-1.37 2.71-2.58 4.17-3.05 4.88-1.58 10.39 0 15.1 1.45q9.42 2.82 18.85 5.6 19.27 5.67 38.64 11.12 38.7 10.91 77.65 20.91t78.16 19.09q9.8 2.27 19.6 4.49c5.79 1.3 11.47 2.67 17-.31a50.91 50.91 0 0 0 6.71-4.8q4.1-3.2 8.22-6.35 7.63-5.85 15.35-11.6a1429 1429 0 0 1 128.12-85.1q8.12-4.77 16.28-9.44h-1.2c3.64 2.54 4.15 7.9 4.31 11.95a107.9 107.9 0 0 1 -1 16.06 124.46 124.46 0 0 0 -1.17 14.67q.09 12.51.57 25c1.21 31.76 4.23 63.42 6.15 95.15 1 16.46 1.67 33 1.81 49.45.06 7.61.13 15.74-5.17 21.79-2.5 2.86-5.65 5.09-8.63 7.4q-4.85 3.78-9.68 7.57c-24.82 19.43-49.39 39.17-74.61 58.08a899.63 899.63 0 0 1 -77.66 52.78q-5.28 3.17-10.62 6.23a1.14 1.14 0 0 0 1.15 2 846 846 0 0 0 81.21-53.72c25.62-18.94 50.5-38.86 75.54-58.55 6.5-5.1 13-10.14 19.53-15.26a31.79 31.79 0 0 0 7.63-7.85 24.33 24.33 0 0 0 3.17-9.52c1.11-7.93.48-16.25.3-24.22-.19-8.58-.54-17.15-1-25.71-1.67-32.38-4.84-64.67-6.36-97.06q-.6-12.74-.84-25.49a139.81 139.81 0 0 1 .54-18.08c.63-5.61 1.39-11.23 1.53-16.88.12-4.57 0-9.58-2-13.77a10.41 10.41 0 0 0 -3.44-4 1.17 1.17 0 0 0 -1.2 0 1430.56 1430.56 0 0 0 -130.66 84.4q-15.57 11.31-30.83 23-3.51 2.68-7 5.41c-2.69 2.09-5.46 4.53-8.78 5.52s-7 .23-10.43-.53-7-1.58-10.46-2.37q-39.19-9-78.17-18.83-39.42-10-78.58-20.89-19.38-5.39-38.68-11-9.86-2.86-19.71-5.8c-5.65-1.68-11.33-3.83-17.19-4.65-5.44-.76-14.71.18-14.63 7.38.06 6.16 1.62 12.45 2.83 18.46s2.69 12.15 3.72 18.28c.68 4 .3 8.33.32 12.41q0 9.24-.12 18.49c-.67 45.8-4.59 91.47-4 137.29q.13 9.62.46 19.21a1.25 1.25 0 0 0 .89 1.17c33.52 10.12 66.53 21.82 99.6 33.31 35.36 12.29 70.8 24.43 106.78 34.8 19.57 5.65 39.32 10.75 59.27 14.89 1.06.22 1.52-1.4.45-1.63z"/><g fill="#18c4ff"><path d="m719.76 730.17c3.23-2.51 6.51-5.1 8.66-8.57 3.44-5.53 3.51-12.43 3.48-18.94-.32-61.39-8.19-110.49-8.51-171.88-.06-11 6.49-36.25-2.73-42.35a1427 1427 0 0 0 -169.6 113.71c-2.66 2.08-5.42 4.21-8.71 5l-.51.09c-2.21 25.43-3.93 50.64-3.89 73.26 0 18.74.58 37.47 1.13 56.19l3.48 119.4c.79.16 1.57.34 2.36.51 64.98-37.36 115.64-80.46 174.84-126.42z"/><path d="m721.11 731.52c3.34-2.6 6.71-5.31 9-8.95a26.86 26.86 0 0 0 3.48-11.6 124.38 124.38 0 0 0 .21-13.38q-.09-7.27-.31-14.55c-.56-18.52-1.76-37-3.1-55.51-1.32-18-2.74-36.08-3.72-54.14-.51-9.42-.9-18.84-1.12-28.27-.18-7.34-.47-14.67.32-22 .75-7 1.82-14 1.65-21-.13-5.51-1-12-5.86-15.36a1.9 1.9 0 0 0 -1.93 0q-36.56 20.91-71.86 43.92-35.17 22.94-68.87 47.89-9.44 7-18.76 14.12-4.58 3.49-9.13 7c-2.93 2.28-6 5-9.74 5.64a2 2 0 0 0 -1.4 1.84c-1.39 16.06-2.62 32.14-3.32 48.24-.68 15.64-.62 31.27-.32 46.92.62 32.8 1.79 65.59 2.75 98.39q.81 27.65 1.61 55.3a2 2 0 0 0 1.41 1.84c1.67.36 2.86.83 4.42 0s3.38-2 5.06-2.94q4.71-2.77 9.38-5.61 9.35-5.67 18.51-11.63c12-7.76 23.73-15.86 35.32-24.19 23-16.52 45.28-34 67.5-51.48 12.94-10.19 25.86-20.4 38.86-30.5 1.94-1.51-.78-4.19-2.7-2.7-22.3 17.31-44.32 35-66.66 52.25-21.84 16.87-44 33.31-67 48.58q-20 13.27-40.78 25.27l1.47-.19-2.35-.51 1.4 1.84q-1.53-49.05-2.92-98.15c-.94-32.14-2.53-64.4-1.42-96.56.63-18.07 2-36.11 3.56-54.13l-1.4 1.84c3.15-.56 5.91-2.39 8.42-4.29 2.8-2.13 5.56-4.32 8.35-6.46q8.34-6.43 16.78-12.73 16.88-12.57 34.1-24.69 34.62-24.28 70.64-46.48 20.28-12.51 41-24.32h-1.93c3.76 2.59 3.94 8.64 4 12.71a146.34 146.34 0 0 1 -1.46 18.21 145.82 145.82 0 0 0 -.66 19.5q.25 13.74.94 27.46c1.75 35.38 5.35 70.65 6.78 106 .42 10.35.75 20.73.68 31.09 0 4.5-.23 9.22-2.08 13.39-1.95 4.42-5.79 7.43-9.5 10.32-1.93 1.56.78 4.24 2.7 2.76z"/><path d="m303.35 730.34a9.32 9.32 0 0 0 8.53-11.1.78.78 0 0 0 -.77-.59c-2.11.22-2.66 2.39-2.93 4.18a9 9 0 0 0 1.21 6.65c2 2.73 7.15 2.95 8.23-.73l-1.62.25c1.22 2.55 3.64 3.33 6.17 4.1 3 .92 6 1.76 9 2.51 6.06 1.51 12.2 2.73 18.38 3.65.91.14 1.31-1.26.39-1.4a168.47 168.47 0 0 1 -17-3.39q-4.08-1.05-8.1-2.29c-2.65-.81-6.07-1.32-7.35-4.1-.34-.75-1.44-.46-1.65.22-.75 2.4-4.23 1.47-5.25-.15a7.08 7.08 0 0 1 -.81-4.22c.07-1.06.12-3.48 1.5-3.67l-1-.56a7.81 7.81 0 0 1 -7 9.32c-.86 0-.87 1.38 0 1.35z"/><path d="m304.92 744.13a6.85 6.85 0 0 0 3.94 2 6.58 6.58 0 0 0 1.88 0c1-.15 1.87-.72 2.75 0 .55.47.91 1.1 1.5 1.56a6.12 6.12 0 0 0 1.77.93 22 22 0 0 0 4.35.77c3.55.47 6.74 2.42 10.18 3.39a36.93 36.93 0 0 0 11.29 1.61.71.71 0 0 0 0-1.41 55.69 55.69 0 0 1 -11.1-1.76c-3.2-.94-6.21-2.77-9.51-3.29a41.14 41.14 0 0 1 -4.13-.62 5.11 5.11 0 0 1 -2.09-1c-.52-.45-.88-1-1.4-1.49-1.18-1-2.28-.51-3.63-.2a5.38 5.38 0 0 1 -4.86-1.38c-.63-.59-1.56.34-.94.94z"/><path d="m307.46 758.12a61.27 61.27 0 0 0 12.46 4.88.76.76 0 0 0 .41-1.47 75.23 75.23 0 0 1 -12.17-4.57c-.8-.39-1.5.79-.7 1.2z"/></g><path d="m542.07 613.08c23.64 14.42 42.38 35 59.27 56.7 4.21 5.4 8.33 10.87 12.43 16.36 1.89 2.53 3.65 5.52 6.11 7.55a6.84 6.84 0 0 0 8.21.61 44.22 44.22 0 0 0 4.18-2.93l5.39-4 9.55-7 19.92-14.6 78.87-57.72q19.71-14.43 39.43-28.88c3.28-2.41 6.59-4.8 9.86-7.23 2.44-1.8 5-3.84 5.83-6.88 1.88-6.6-4.44-12.73-8.27-17.25a328.16 328.16 0 0 0 -63.31-57.56q-4.24-3-8.59-5.78c-1.32-.86-2.55 1.26-1.23 2.12a328.13 328.13 0 0 1 63.74 54.11q3.48 3.82 6.84 7.76a79.36 79.36 0 0 1 6.52 8.12c1.89 2.91 3.29 6.53 1.15 9.71-1.87 2.78-5.26 4.66-7.91 6.61l-38.59 28.3-76.77 56.29-38.59 28.29c-3 2.2-5.92 4.76-9.15 6.59a4.63 4.63 0 0 1 -4.49.39 10.8 10.8 0 0 1 -3.44-3.29c-4.12-5.37-8.1-10.86-12.22-16.23-16.07-20.92-33.59-41.33-55.59-56.24-2.73-1.85-5.56-3.55-8.42-5.18a.73.73 0 0 0 -.73 1.26z"/><path d="m545.47 190a94 94 0 0 0 -79.17-29.63c-46.91 5.5-86.83 34.54-120.45 65.86-32.34 30.13-61.32 76.73-107.69 85.46-9.44 1.78-19.59 1.62-28.21-2.64-19.49-9.63-23.95-36.36-18-57.25.75-2.64 1.62-5.5.57-8-1.15-2.78-4.22-4.18-7.09-5.07a53 53 0 0 0 -44.32 6.27 14.93 14.93 0 0 0 -5 4.76c-1.45 2.56-1.51 5.65-1.52 8.6-.11 40.83 11 85.42 43 113.22 34.63 30.17 87 42 131.87 37.1 27.94-3.06 54.85-12.46 82.7-16.29 38.16-5.26 75.51 4.36 112-9.79 31-12 57.95-34.8 73.72-64.18 17.5 15.49 42 20.16 65.38 21.19 30.52 1.36 62.2-2.78 88.47-18.38s46.11-44.25 45.14-74.78c-.72-22.9-13-44.51-30.23-59.57s-39.15-24.05-61.52-29c-53.23-11.72-114.66 1.45-148.93 43.83" fill="#fff"/><path d="m539.41 363.9a141.18 141.18 0 0 0 32.48-33.46 130.52 130.52 0 0 0 7-11.41l-1.84.24c14.1 12.55 32.53 18.13 50.92 20.5a197.62 197.62 0 0 0 59.12-1.31c19.12-3.37 38.11-10.2 53.77-21.87 14.08-10.49 25.59-24.66 32-41.08a73.5 73.5 0 0 0 .6-52.11c-6.46-17.64-18.72-32.59-33.85-43.54-15.91-11.53-34.67-18.73-53.74-23a177.1 177.1 0 0 0 -51.24-3.86 159.32 159.32 0 0 0 -49.5 11.31 128.79 128.79 0 0 0 -41.69 27.27 115.25 115.25 0 0 0 -8.26 9.14c-1.15 1.42.86 3.46 2 2a120.5 120.5 0 0 1 37.82-30.56 150.43 150.43 0 0 1 46.86-15.1 171.66 171.66 0 0 1 50.2-.26c18.34 2.59 36.62 7.89 53 16.67s30.86 21.43 40.26 37.71c8.93 15.47 12.72 33.58 9.11 51.2-3.46 16.88-12.9 32.18-25.2 44.07-13.5 13-30.59 21.64-48.63 26.47-18.95 5.08-38.95 6.23-58.48 5.26-18.06-.9-36.71-3.87-52.61-13a67.88 67.88 0 0 1 -10.74-7.6 1.18 1.18 0 0 0 -1.84.23 136.88 136.88 0 0 1 -28.14 36.27q-4.85 4.47-10.09 8.47c-.75.58 0 1.89.77 1.31z"/><path d="m546 189.46c-20.64-22.77-52-33.93-82.42-29.91-32.16 4.25-61.53 19.7-87.17 39a362.82 362.82 0 0 0 -35.76 30.71c-9.91 9.71-19 20.21-28.36 30.4-18.76 20.34-39.69 41.34-67.09 49.15-14.77 4.2-32.29 4.63-43.59-7.4-9-9.56-11.68-23.67-10.81-36.39a64 64 0 0 1 1.52-10c.8-3.4 2.45-7 1.62-10.55-1.59-6.77-11.69-8.07-17.32-8.76a54.44 54.44 0 0 0 -23.47 2.29 53.59 53.59 0 0 0 -10.34 4.64c-3 1.79-6.37 3.89-8 7.18s-1.39 7.37-1.36 11 .15 7.39.37 11.08a200.21 200.21 0 0 0 2.49 22 157.88 157.88 0 0 0 13.21 42.38 114.08 114.08 0 0 0 26.22 35.36 142.78 142.78 0 0 0 38 24 190.59 190.59 0 0 0 88.88 15c18-1.26 35.57-5.43 53.08-9.53 18.62-4.36 37.19-8.28 56.38-8.89 9.25-.3 18.5-.11 27.75 0a1.44 1.44 0 0 0 0-2.87c-18.6-.21-37.06-.32-55.46 2.82-18.11 3.09-35.82 8.08-53.81 11.74a205.67 205.67 0 0 1 -48 4.43 191.61 191.61 0 0 1 -45.39-7c-28.54-8-56.53-23.25-74.38-47.51-17.46-23.72-25.08-53.5-26.73-82.55q-.32-5.53-.34-11.07c0-4.17-.27-8.68 2.92-11.85 2.74-2.73 6.54-4.67 10-6.25a52.08 52.08 0 0 1 35.81-2.52c4 1.19 7.89 3.17 7.29 8-.43 3.46-1.78 6.83-2.39 10.27-2.16 12.16-1.22 25.41 4.47 36.53a35.93 35.93 0 0 0 11.58 13.4c6.28 4.31 13.9 6.1 21.44 6.15 13.85.09 27.72-4.86 39.65-11.61s22.26-15.5 32-24.9c10-9.68 19.24-20.12 28.79-30.26s19.4-20.15 30-29.43c24-21.07 50.88-40 81.49-50 14.75-4.82 30.46-7.83 46-6.48a94.61 94.61 0 0 1 43.22 15 90.9 90.9 0 0 1 16.89 14.29c.66.72 1.72-.35 1.07-1.07z"/><path d="m148.27 249.94c-1.45.4-1.66 2.58-.69 3.72a6.24 6.24 0 0 0 4.08 1.67 46.48 46.48 0 0 0 26.84-4.62 4.56 4.56 0 0 0 2.12-1.74 5.33 5.33 0 0 0 .28-2.73c-.49-9.71 5.56-18.62 12.78-25.12s15.79-11.41 22.85-18.09c3.16-3 6.08-6.48 7.18-10.69s-.08-9.26-3.71-11.65c-2.95-1.95-6.84-1.8-10.25-.86a26 26 0 0 0 -12.44 7.72c2.43-4.6 4.89-10.11 2.59-14.77-5.27-10.67-16.76-8.14-24.55-1.85-10.2 8.24-13.21 21.35-12 34a68 68 0 0 0 -2.22-13.51 15.17 15.17 0 0 0 -3.2-6.68c-3.26-3.42-9.12-3.42-13-.71s-5.88 7.52-6.15 12.24 1 9.38 2.51 13.86c-2.75-4.49-7.41-8.05-12.66-8.39s-10.78 3.26-11.63 8.43c-1.1 6.31 4.4 11.78 9.83 15.19a71.31 71.31 0 0 0 15.42 7.28c-3.77 2-9.89-2-11.94 1.71-1 1.78.15 4.09 1.82 5.23s3.75 1.48 5.68 2.09a20.69 20.69 0 0 1 10.19 7.26" fill="#18c4ff"/><path d="m148.1 249.31a2.94 2.94 0 0 0 -1.49 4.06c.93 2.09 3.45 2.59 5.48 2.85a45.92 45.92 0 0 0 16.8-1 47.16 47.16 0 0 0 8.09-2.79c2.14-1 4.63-1.94 4.85-4.6.11-1.18-.07-2.39 0-3.58a22.23 22.23 0 0 1 .59-4.22 28.41 28.41 0 0 1 2.9-7.27c5.65-10.08 15.67-16.18 24.6-23 7.3-5.56 18.23-14.28 14.42-24.85-1.92-5.35-7.14-7.3-12.48-6.49a26.24 26.24 0 0 0 -15.17 8.46l1.45 1.12a28.72 28.72 0 0 0 3.5-9.44 11.65 11.65 0 0 0 -2.2-8.4 12.82 12.82 0 0 0 -11.84-5.51c-10.9.94-19.55 10.53-23 20.32a47 47 0 0 0 -2.08 20c.1 1.11 1.83 1.14 1.75 0a66.46 66.46 0 0 0 -2.58-14.88c-1.15-3.8-3.23-7.22-7.23-8.4a11.9 11.9 0 0 0 -10.62 2.13 16.35 16.35 0 0 0 -5.63 10.2c-.92 5.57.5 11.14 2.27 16.38l1.63-.69a18.77 18.77 0 0 0 -10.45-8.32 13 13 0 0 0 -11.92 2.5 10.43 10.43 0 0 0 -3.31 11.18c1.41 4.48 5.17 7.92 9 10.48a69 69 0 0 0 16.59 8l-.22-1.68c-2.7 1.29-5.92-.3-8.75-.05a4.12 4.12 0 0 0 -3.75 5.5c1.19 3.63 5.11 4.28 8.28 5.28a19.89 19.89 0 0 1 9.73 6.81c.69.91 2.24 0 1.54-.9a22 22 0 0 0 -7.6-6.41 25.67 25.67 0 0 0 -4.74-1.75c-1.61-.45-3.43-.89-4.6-2.19-1-1.06-1.56-2.88-.27-4 .91-.75 2.32-.59 3.41-.48 2.59.25 5.21.92 7.68-.26.77-.36.47-1.45-.22-1.68a71.18 71.18 0 0 1 -13.08-5.9c-3.66-2.12-7.33-4.64-9.69-8.23-2.19-3.32-2.77-7.54-.23-10.86a10.94 10.94 0 0 1 10.09-4c4.68.68 8.57 3.95 11 7.85.52.82 2 .31 1.63-.69-2.5-7.4-4.51-16.76 1.2-23.27a10.43 10.43 0 0 1 9.26-3.57c3.93.55 6.09 3.51 7.22 7.08a62.57 62.57 0 0 1 2.59 14.85h1.75c-1-10.65.93-22.09 8.36-30.23 5.33-5.85 16.33-12.22 23.51-5.62a10.87 10.87 0 0 1 3.78 8c-.08 3.55-1.77 6.91-3.39 10-.46.89.72 1.93 1.46 1.12a25.25 25.25 0 0 1 11.83-7.43c4.34-1.22 9.64-1 12.1 3.33 2.24 3.95 1.25 8.69-1 12.37-2.58 4.18-6.54 7.47-10.36 10.49-7.7 6.09-16.34 11.21-22.65 18.88a36 36 0 0 0 -6.65 11.63 25.25 25.25 0 0 0 -1.21 6.38c-.07 1.14 0 2.25 0 3.38 0 1.55-.92 2.14-2.18 2.78a45.2 45.2 0 0 1 -16.56 4.63 48.16 48.16 0 0 1 -8.32 0 10.28 10.28 0 0 1 -4.18-.89c-1-.57-1.86-2.6-.35-3.18.77-.29.45-1.53-.34-1.25z" fill="#18c4ff"/><path d="m145.11 254.65c2.53 2.61 6.18 3.28 9.68 3.27a53 53 0 0 0 11.07-1.36c7.21-1.57 14.85-4.64 19.72-10.41.7-.83-.41-2-1.21-1.21a37.5 37.5 0 0 1 -18.21 9.72 65.28 65.28 0 0 1 -10.23 1.54c-3.45.24-7.25 0-9.86-2.5a.68.68 0 0 0 -1 1z"/><path d="m412.16 268.51a14.59 14.59 0 0 1 5.71-7.91 21.41 21.41 0 0 1 4.48-2.57 11.59 11.59 0 0 1 2.89-.8 26.88 26.88 0 0 1 3.24.06 1 1 0 0 0 .25-1.86c-2.06-.77-4.76-.11-6.72.69a22.82 22.82 0 0 0 -5.14 3 16 16 0 0 0 -6.14 9c-.21.93 1.19 1.33 1.43.4z"/><path d="m419.39 259.57c-.81-.32-1.51.44-1.81 1.1a7.06 7.06 0 0 0 -.79 2.61 2.83 2.83 0 0 0 3.08 3.06 4.57 4.57 0 0 0 3.68-2.87 4.63 4.63 0 0 0 .22-2.55 3.51 3.51 0 0 0 -1.35-2.29c-1.75-1.18-3.38 1.07-4 2.48a8 8 0 0 0 -.67 2.44 2.88 2.88 0 0 0 .61 2.44 2.3 2.3 0 0 0 2.9 0 3.74 3.74 0 0 0 1.44-2.27 8.59 8.59 0 0 0 .15-1.34 5 5 0 0 0 -.12-1.44 1.85 1.85 0 0 0 -3-1 4.26 4.26 0 0 0 -1.19 2.5 4.32 4.32 0 0 0 .42 3 1.89 1.89 0 0 0 1.59.93 1.92 1.92 0 0 0 1.6-1.13 5.24 5.24 0 0 0 .64-2.95 1.24 1.24 0 0 0 -.74-1.1 1.17 1.17 0 0 0 -1.31.25 4 4 0 0 0 -1 2.27 1.19 1.19 0 0 0 2.34.31 6.09 6.09 0 0 1 .17-.71 2.49 2.49 0 0 1 .11-.29c0-.13 0-.13 0 0 0-.07.06-.13.08-.19a1.2 1.2 0 0 0 -.41-1.6 1.18 1.18 0 0 0 -1.6.42c-.18.36-.35.72-.52 1.08a1 1 0 0 0 .27 1.33 1 1 0 0 0 1.36-.08l.72-.92-1.83-1.41a5.68 5.68 0 0 0 -.65 1.75l2.3.63a2.33 2.33 0 0 1 .08-.36s.13-.36.06-.21.09-.15.11-.18.07-.11.1-.16c-.09.12-.1.13 0 0l-2.05-.84a2.21 2.21 0 0 1 0 .81s.05-.26 0 0a1.77 1.77 0 0 1 0 .2 3.66 3.66 0 0 1 -.13.44s-.08.23 0 .09v.09c-.06.12-.13.23-.2.35a.35.35 0 0 1 .22-.19.86.86 0 0 1 .57-.09.62.62 0 0 1 .28.17c-.18-.17.09.22 0 0a1.46 1.46 0 0 0 -.09-.15c.05 0 .07.25 0 .05s-.11-.29-.08-.38 0 .29 0 0c0-.07 0-.13 0-.19v-.39c0-.07 0-.13 0-.2 0-.25 0 0 0 0s.06-.31.08-.38.07-.24.11-.37 0 0 0 0 .07-.15.11-.22l.19-.33c.08-.14-.14.16 0 0a.42.42 0 0 1 -.29.14.51.51 0 0 1 -.4 0s-.25-.17-.15-.08-.06-.1-.08-.12 0-.06 0 .05v.1c-.06-.26 0 .12 0 .19s0 .28 0 .42 0 .28 0 .42a1.5 1.5 0 0 1 0 .2c0-.17 0-.06 0 .05a2.92 2.92 0 0 1 -.1.4.78.78 0 0 1 -.05.14c.05-.2.05-.09 0 0s-.11.2-.17.3 0 0 0 0-.18.18-.18.19 0 .11 0 0a.67.67 0 0 1 -.14.09l-.11.06c-.14.08.2-.05 0 0s-.22.07 0 0-.18 0 0 0a1.86 1.86 0 0 1 .27.22c-.12-.16.05 0 0 .07s0-.15 0-.15 0 .26 0 .07a.81.81 0 0 0 0-.16c0-.27 0-.54 0-.81s0 .2 0 0v-.19c0-.12.05-.24.09-.37a5.2 5.2 0 0 1 .25-.76c-.09.23 0-.1.07-.16l.18-.34c.12-.22.27-.42.41-.63-.13.19.07-.09.12-.15l.25-.27.14-.13c-.17.14-.05 0 0 0a.48.48 0 0 1 -.23.07c-.14 0-.17 0-.08 0-.16-.11.11.13 0 0s0 0 .06.07-.08-.15 0 0l.09.15c0 .06.06.12.09.17s-.05-.15 0 0a3.38 3.38 0 0 1 .13.42c0 .05.08.42.05.18v.38a2.54 2.54 0 0 1 0 .39c0 .05-.05.19 0 0 0 .08 0 .16-.05.23a3 3 0 0 1 -.1.32c-.06.2 0 .05 0 0s-.05.1-.08.16a2.75 2.75 0 0 1 -.17.29l-.1.15c-.15.22.14-.15-.05.05a2.73 2.73 0 0 1 -.23.25l-.16.14-.07.05-.14.1-.34.18c-.17.09 0 0 0 0l-.25.09a2.22 2.22 0 0 1 -.37.09h-.19-.18c-.17 0 .06.05 0 0l-.13-.08c-.1-.05.1.11 0 0a1.14 1.14 0 0 0 -.11-.11c-.16-.17 0 .08 0 0s-.12-.21-.18-.32c.08.16 0 0 0 0a2.09 2.09 0 0 1 -.08-.23 1.24 1.24 0 0 1 0-.16c0-.18 0 .1 0-.05s0-.32 0-.49a3.78 3.78 0 0 1 .16-.83c.09-.32.18-.64.3-.95a1.29 1.29 0 0 1 .12-.23s-.33 0-.2 0a.65.65 0 0 0 .34-1.25z"/><path d="m399 258.64c4.84-9.31 11.32-19.81 22.76-21.17 1-.11 1-1.69 0-1.59-12 1.18-19.11 12.23-23.86 22.11-.35.73.72 1.38 1.1.65z"/><path d="m388.5 327.59 40.23-21.24c5.28-2.79 10.75-5.63 16.7-6.12a4.48 4.48 0 0 1 2.69.38 4.57 4.57 0 0 1 1.67 2.23c3.38 7.67 2.44 16.58.08 24.61-2.74 9.28-7.56 18.33-15.45 23.91s-19.29 6.89-27.18 1.3c-8.22-5.82-10.54-16.82-12-26.78"/><path d="m388.85 328.2c12.18-6.2 24.28-12.58 36.4-18.9 5.57-2.9 11.17-6.25 17.4-7.5 1.29-.26 3.14-.75 4.43-.34s1.79 2.16 2.19 3.31a27.44 27.44 0 0 1 1.48 8.94 49.25 49.25 0 0 1 -3.25 17 45.82 45.82 0 0 1 -7.72 14c-6.67 8-17.72 12.86-27.95 9.07-11.28-4.18-14-17.65-15.62-28.13-.2-1.33-2.2-.76-2 .56 1.5 10.3 3.92 22.38 13.52 28.27 9.9 6.07 22.86 2.64 30.91-4.88a42.68 42.68 0 0 0 9.63-14.06 58.18 58.18 0 0 0 4.81-17.88 34.06 34.06 0 0 0 -.37-9.35 25.44 25.44 0 0 0 -1.25-4.54 9.84 9.84 0 0 0 -1.93-3.52c-2.13-2.11-6-1-8.55-.35a48 48 0 0 0 -9.16 3.75c-7.29 3.7-14.45 7.69-21.66 11.55s-14.7 7.84-22 11.83c-.8.44-.09 1.63.71 1.22z"/><path d="m450.9 323.4a13.6 13.6 0 0 0 -8.7.74c-3.88 1.63-7.05 4.56-10.13 7.44a24.45 24.45 0 0 0 -4.3 4.91 3.41 3.41 0 0 0 -.55-.81 5.46 5.46 0 0 0 -6.08-.75 12.71 12.71 0 0 0 -4.71 4.42 64.23 64.23 0 0 0 -7.26 14.49c7.74 4.16 18 2.67 25.25-2.48 7.89-5.58 12.71-14.63 15.45-23.91.39-1.33.73-2.68 1.03-4.05z" fill="#18c4ff"/><path d="m451.41 321.56c-5.09-1.29-10.18.34-14.36 3.3a56.77 56.77 0 0 0 -5.71 4.79 30.1 30.1 0 0 0 -5.22 5.88h3.3a6.48 6.48 0 0 0 -6.62-3 10.74 10.74 0 0 0 -6.86 4.33c-3.9 4.87-6.4 10.7-8.61 16.48a1.92 1.92 0 0 0 .88 2.16c7.34 3.85 16.16 3.26 23.49-.3s12.78-10.35 16.29-17.57a62.2 62.2 0 0 0 4.75-13.71c.54-2.39-3.14-3.42-3.68-1-3.09 13.84-11.6 29.66-27.29 31.31a20.28 20.28 0 0 1 -11.64-2l.88 2.16a65.33 65.33 0 0 1 6.43-13.11c1.16-1.73 2.52-3.68 4.48-4.57 1.36-.61 3.39-.69 4.2.78a1.93 1.93 0 0 0 3.3 0 25.24 25.24 0 0 1 4.31-4.81 55.08 55.08 0 0 1 4.91-4.24c3.42-2.49 7.48-4.24 11.76-3.16 2.38.57 3.39-3.11 1.01-3.72z" fill="#18c4ff"/><path d="m355.26 284.45a16 16 0 0 1 8.52-3.77 17.68 17.68 0 0 1 4.48 0 24.75 24.75 0 0 1 4.56 1.3.85.85 0 0 0 .65-1.54c-2.84-1.68-6.87-1.89-10.05-1.36a17.55 17.55 0 0 0 -9.08 4.46c-.61.58.29 1.46.92.92z"/><path d="m364.54 280a3 3 0 0 0 -2.82.81 2.42 2.42 0 0 0 -.7 1.64 2.3 2.3 0 0 0 1 1.61 4.83 4.83 0 0 0 3.24 1.15 3.64 3.64 0 0 0 3-1.66 2.45 2.45 0 0 0 -1.12-3.34 4.83 4.83 0 0 0 -1.62-.49 4.78 4.78 0 0 0 -2.06.08 3.06 3.06 0 0 0 -2.24 2.69 2.44 2.44 0 0 0 2.42 2.55 3.68 3.68 0 0 0 1.86-.64c.73-.49 1.37-1.15 1.13-2.11a3.23 3.23 0 0 0 -1.32-1.6 2.46 2.46 0 0 0 -2-.61c-1.46.39-1.65 2.22-.88 3.31a2.79 2.79 0 0 0 3.59 1 2 2 0 0 0 .92-2.14 2.22 2.22 0 0 0 -1.44-1.41 3.92 3.92 0 0 0 -1.89-.44 2.47 2.47 0 0 0 -1.84.94 2.32 2.32 0 0 0 -.35 2.07 2.91 2.91 0 0 0 1.21 1.57 4.27 4.27 0 0 0 3.56.49 2.83 2.83 0 0 0 1.92-3.17 3 3 0 0 0 -2.4-2.11 4.63 4.63 0 0 0 -3.71.81c-1.18 1-.84 2.69.08 3.7a2.82 2.82 0 0 0 1.47.83 1.17 1.17 0 1 0 .63-2.26c.3.11.06 0 0 0l-.2-.12s-.14-.08-.13-.09l.12.09-.12-.1-.05-.06c-.09-.1-.07-.08 0 .06a.51.51 0 0 0 -.09-.13v-.07c-.05-.11-.05-.09 0 .08 0 0-.11-.29-.09-.32v.08c0 .1 0 .09 0 0v-.09c0 .18 0 .21 0 .07l-.05.14c-.11.13-.12.15 0 .05s0-.06-.05 0 .18-.11.22-.13h.06a1.74 1.74 0 0 1 .55-.16s.33-.06.13 0 .12 0 .13 0a4.64 4.64 0 0 1 .53 0c.2 0-.3-.07-.05 0l.23.06.18.05-.12-.05.14.07.19.12c-.06 0-.19-.18-.07-.06s.12.15.15.15l-.1-.13a.75.75 0 0 1 .07.12c.12.17-.05-.07 0-.09v.07c0 .12 0 .09 0-.1v.07c0 .14 0 .11 0-.09a1.8 1.8 0 0 0 -.06.22l.07-.14-.08.13c-.11.24.19-.17 0 0a.57.57 0 0 1 -.11.11c-.18.19.23-.11 0 0-.08 0-.24.19 0 0a.64.64 0 0 1 -.18.06c-.06 0-.35.13 0 0a1.2 1.2 0 0 1 -.33 0 .59.59 0 0 1 -.23 0h.14-.19a3.17 3.17 0 0 1 -.44-.12h-.08q-.19-.08.06 0s-.15-.07-.19-.09-.18-.09-.18-.12h.05l-.12-.11c-.18-.17.06.05 0 .05v-.07c-.06-.11-.05-.09 0 .08 0 0-.05-.23-.06-.23s0 .28 0 .09-.09.26 0 0l-.07.15c.07-.12 0-.1-.07.05l.11-.11c-.15.11-.17.14-.06.07s.09-.05-.08 0h.07q.21 0-.09 0a.71.71 0 0 0 .15 0h.08c.13 0 .11 0-.06 0 .06 0 .21.05.27.07l.18.06c.06 0 .36.1.05 0a4.37 4.37 0 0 1 .49.23c.19.09-.11-.1-.15-.17a.62.62 0 0 1 -.09-.42c0-.06.15-.36 0-.17l.09-.13c.15-.11.16-.12 0-.06.38-.21-.11 0 .14-.05s-.05 0-.09 0c-.26 0 .26.09 0 0s0 0 0 0l-.2-.11c-.23-.13.19.19 0 0l-.11-.11.1.13a.57.57 0 0 1 -.08-.13v-.06c-.06-.12-.05-.09 0 .08a.39.39 0 0 0 -.05-.14c-.09-.26 0 .3 0 .05s0-.09 0 .13c0-.13 0-.09-.06.11.06-.1.1-.08-.08.1a.85.85 0 0 1 -.77.2c.28.05-.2-.12 0 0l.15.08.23.14c.25.15-.18-.18 0 0s.34.25.37.38l-.08-.11q.09.15 0 0v-.07c.36-.79.41-1.06.16-.8-.06.05-.23.26 0 0a.91.91 0 0 1 -.19.13 2 2 0 0 1 -.45.24c.28-.09.06 0 0 0s-.41.06-.07 0h-.09q.27 0 .06 0l.1.05h-.06l.08.06-.05-.05c-.08-.09-.06-.07.07.09 0 0-.07-.12-.08-.13l.07.17v-.14-.07c0-.13 0-.09 0 .11v-.1q0-.15 0 .15s.06-.22.06-.22l-.07.15.08-.14a1.48 1.48 0 0 0 .08-.13c-.11.25-.09.12 0 0h.06c.1-.09.08-.07-.07 0l.13-.08.21-.11h-.08.14l.24-.06c.3-.09-.25 0 .06 0h.49.3s.33 0 .13 0 .11 0 .12 0l.36.09.17.05c.27.08-.17-.13.06 0l.08.05c.1.07.09.05 0 0l.12.11c.18.15-.08-.19 0 0v.07c-.06-.15-.06-.16 0-.05s.06 0 0-.06a.86.86 0 0 1 0 .16c0-.16 0-.18 0-.06s.12-.15 0 0v.06c-.07.1-.07.09 0 0 0 .05-.14.13-.17.17s.14-.07 0 0l-.22.13-.16.08c.12-.05.13-.05 0 0a2.3 2.3 0 0 1 -.5.13h-.31-.26c.26 0 0 0-.07 0a5.18 5.18 0 0 1 -.56-.17c-.16-.06.2.11-.05 0l-.32-.17-.46-.3c-.24-.16.14.12-.08-.07l-.2-.18v.06c-.08-.15-.07-.09 0 .16 0-.12 0-.12 0 0v-.08-.09c-.05.11-.05.11 0 0s.2-.31.07-.14c.09-.12.21-.23.31-.34l.14-.13.12-.09.21-.11c-.12.06.1 0 .1 0a1 1 0 0 1 .42-.06.67.67 0 0 0 .18-1.31z"/><path d="m347.63 268.83c3-3.15 7.25-4.43 11.47-4.87a28.58 28.58 0 0 1 13.46 1.33c.9.34 1.47-1.09.65-1.55-4.2-2.34-9.92-2.07-14.53-1.42-4.45.62-8.91 2.14-12 5.57-.57.63.35 1.57.94.94z"/><path d="m147.16 220.63a11.49 11.49 0 0 1 1.56-4.24c.75-1.16 2.14-2.87 3.59-3.14s2.9 1.68 3.48 2.85a7.63 7.63 0 0 1 .66 4.77l.63-.63c-1.28.52-.53-2.42-.4-3 .22-1 .48-1.92.77-2.87a38.67 38.67 0 0 1 2.07-5.29 32.93 32.93 0 0 1 6.6-9.64c2.6-2.49 7.33-4 9.56-.21 2 3.51.56 7.87.35 11.63-.07 1.26 1.85 1.23 2 0a13.34 13.34 0 0 1 4.38-8.85c1.17-1 3.39-2.13 4.66-.59.92 1.12.35 2.94 1.22 4.19a1 1 0 0 0 1.56.2l2.82-3.23c.84-1-.57-2.37-1.41-1.41l-2.81 3.24 1.56.2c-.62-.88-.43-2-.68-3a3.63 3.63 0 0 0 -1.46-2.13 5.08 5.08 0 0 0 -5.67.22c-3.68 2.39-5.76 6.89-6.13 11.15h2c.27-4.94 2.37-12.54-3.48-15.28-5.66-2.65-10.6 2.88-13.47 7a40.67 40.67 0 0 0 -4.12 7.66 28 28 0 0 0 -2.42 8.81 2.83 2.83 0 0 0 1.24 2.71 1.61 1.61 0 0 0 2.47-.67c.72-2.33-.32-5.33-1.73-7.19a5.84 5.84 0 0 0 -3.1-2.32 4.15 4.15 0 0 0 -3.5 1.1 10.3 10.3 0 0 0 -4 7.71c0 .72 1.16.91 1.29.17z" fill="#fff"/><path d="m539.6 363.12c15.09-12 35.6-10.54 53-5.33 18.69 5.59 38.77 14.76 53.53 27.61a314.51 314.51 0 0 0 13.58-41.4c1-3.93 1.94-8 4.12-11.39 5.18-8.13 15.73-10.69 25.28-12 11.48-1.57 23.47-2.29 34.39 1.6s20.55 13.38 21.41 24.94c.43 5.69-1.24 11.31-2.89 16.77l-12.29 40.78c-2.54 8.41-5.09 16.87-9 24.77-10.76 21.94-31.12 38-53.41 48-17.39 7.81-36.55 12.35-55.53 10.72s-37.76-9.85-50.16-24.31" fill="#fff"/><path d="m539.94 363.7c11.82-8.93 26.94-10.13 41.11-7.55a130 130 0 0 1 21.11 6 162.89 162.89 0 0 1 21.54 9.54 117 117 0 0 1 21.61 14.58 1.25 1.25 0 0 0 2.06-.54 361.19 361.19 0 0 0 14.18-43.91 27.66 27.66 0 0 1 4-9.45 20 20 0 0 1 6.39-5.51c5.12-2.89 11.06-4.09 16.82-4.92 13.59-1.94 28.89-2.81 41 4.71a30.76 30.76 0 0 1 11.71 12.62c3 6.34 2.41 13.13.62 19.74-2.05 7.58-4.51 15.08-6.78 22.6l-6.87 22.75c-2.23 7.4-4.45 14.84-7.63 21.89a83.94 83.94 0 0 1 -9.81 16.38 104.85 104.85 0 0 1 -27.8 24.88 133.5 133.5 0 0 1 -37.39 16.2c-13.74 3.57-28.3 4.67-42.3 1.92-12.43-2.44-24.45-7.75-34.07-16.09a64.31 64.31 0 0 1 -6.74-6.67c-1.27-1.46-3.38.67-2.13 2.13a71.56 71.56 0 0 0 32.9 21.11c13.75 4.34 28.38 4.79 42.55 2.47a131.73 131.73 0 0 0 41.27-14.47 115.62 115.62 0 0 0 30.76-23.73 90 90 0 0 0 11.38-15.58 108.54 108.54 0 0 0 8.7-20.5c5.07-15.61 9.54-31.44 14.26-47.16 2.18-7.26 4.79-14.78 3.47-22.46a28.48 28.48 0 0 0 -8.53-15.33c-10.28-10-24.93-12-38.66-11a97.75 97.75 0 0 0 -20.06 3.1c-5.72 1.64-11.3 4.4-15 9.24a27.09 27.09 0 0 0 -4.25 9.41c-1 3.73-1.91 7.5-2.95 11.23q-3.21 11.54-7.29 22.8-2 5.5-4.19 10.95l2-.55c-12.16-10.53-26.69-18.06-41.7-23.68-13.93-5.22-28.94-9.39-44-7.46a43.48 43.48 0 0 0 -22.27 9.26c-.58.47.2 1.5.81 1.05z"/><g fill="#18c4ff"><path d="m167.61 460.1a97.57 97.57 0 0 1 45.75 46.9 94.15 94.15 0 0 1 6.1 17.89c.24 1 1.83.59 1.59-.44a97.72 97.72 0 0 0 -36.42-55.58 93.89 93.89 0 0 0 -16.37-9.87c-.75-.35-1.41.75-.65 1.11z"/><path d="m180.47 449.09c1.57.74-.26 3.77-.73 4.72a36.24 36.24 0 0 1 -3.08 5.05c-.55.76.61 1.54 1.25 1 3.69-3.34 9.45-8.1 14.58-4.56 2.5 1.73 2.46 5 1.47 7.54a13.78 13.78 0 0 1 -2.28 3.81 38.79 38.79 0 0 1 -3.32 3.09c-.76.71.2 1.75 1 1.35a12.09 12.09 0 0 0 4-3.66 15.69 15.69 0 0 0 2.43-4.43c1.05-3.09.76-6.73-1.93-8.88a9.28 9.28 0 0 0 -8.12-1.45c-3.58 1-6.41 3.6-9.05 6.06l1.26 1a34.39 34.39 0 0 0 3.79-7c.57-1.45 1.11-3.83-.72-4.63-.73-.32-1.39.75-.64 1.1z"/><path d="m644.07 392.11a20.65 20.65 0 0 1 -3.61 10.59c-.56.82.8 1.61 1.34.78a22.14 22.14 0 0 0 3.6-11.37c0-.86-1.28-.85-1.33 0z"/><path d="m637.68 390.23a16.57 16.57 0 0 1 -3 9.58c-.57.81.78 1.61 1.34.78a16.92 16.92 0 0 0 2.98-10.36.66.66 0 0 0 -1.31 0z"/><path d="m697.58 324.71c-2.31 6.07.57 13.78 7.48 14.86a8.68 8.68 0 0 0 8.08-2.8c2.19-2.54 3-5.91 5-8.58l-2-.82c-1 5 .53 11.69 5.39 14.23a6 6 0 0 0 6.64-.82c2.28-1.82 3.25-4.65 4.76-7l-2.09-.57c-.45 4.11-.42 8.91 3.11 11.76 2.69 2.17 7.25 1.91 8.85-1.49.58-1.24-1.23-2.34-1.87-1.09-1.37 2.65-4.79 2-6.41 0-2.07-2.57-1.77-6.13-1.44-9.2.13-1.17-1.54-1.42-2.08-.56-1.76 2.78-4.17 9.52-8.67 6.88-3.72-2.17-4.9-7.64-4.12-11.55a1.08 1.08 0 0 0 -2-.83c-3 4-3.9 11-10.29 10.5-6.18-.45-8.51-7.22-6.8-12.45.34-1.05-1.25-1.45-1.63-.45z"/><path d="m448.63 389.87a35.87 35.87 0 0 0 23.06-.88c.88-.33.5-1.76-.39-1.42a35.89 35.89 0 0 1 -22.32 1 .67.67 0 0 0 -.35 1.29z"/><path d="m452.33 398.13a20 20 0 0 0 15.1-.13.76.76 0 1 0 -.59-1.4 18.71 18.71 0 0 1 -14.14.21c-.83-.32-1.17 1-.37 1.32z"/><path d="m533.84 207.57a31.49 31.49 0 0 0 -4.29 13.43 35.72 35.72 0 0 0 1.45 14.26c.31 1 1.91.57 1.59-.44a34.41 34.41 0 0 1 -1.46-13.41 40.07 40.07 0 0 1 3.87-13.19.65.65 0 0 0 -1.12-.65z"/><path d="m522.9 230.94c-2.75-6.82.74-13.71 3.83-19.73.45-.87-.86-1.64-1.32-.77-3.39 6.39-6.84 13.82-3.72 21 .29.69 1.5.19 1.21-.51z"/><path d="m64.09 355.39a85.38 85.38 0 0 0 -9.25 43.86 87.62 87.62 0 0 0 13.62 42.8 61.1 61.1 0 0 0 7 9.17c2.6 2.7 6.15 5.27 10.11 4.67s6.43-3.89 8.15-7.15a25.7 25.7 0 0 0 3-11.57c.07-3.47-.34-8-2.61-10.82-2.57-3.17-6.56-1.71-8.77 1-2.52 3.13-3.53 7.53-3.89 11.45a38.33 38.33 0 0 0 1.21 12.88 57 57 0 0 0 27.68 35.32 48 48 0 0 0 5 2.36c1.1.45 1.9-1.42.82-1.92a57.48 57.48 0 0 1 -28.69-28.73c-3.07-7-4.89-15.08-3.35-22.69.63-3.13 2-8.27 5.57-9.25 3.84-1.05 4.65 5.76 4.84 8.19a23.85 23.85 0 0 1 -1.83 11.13c-1.31 3-3.51 6.85-6.95 7.74-3.89 1-7.44-2.22-9.81-4.89a68.3 68.3 0 0 1 -6.27-8.46 85.55 85.55 0 0 1 -13-38.95 84.59 84.59 0 0 1 6.5-40.76q1-2.33 2.19-4.58c.45-.88-.86-1.65-1.32-.78z"/><path d="m116.8 373.45a480.11 480.11 0 0 0 17.42 58.13c.36 1 2 .56 1.59-.44a524.38 524.38 0 0 1 -17.73-58.05c-.2-.83-1.47-.48-1.28.36z"/><path d="m159 374.8 7.69 31.28c.22.9 1.62.52 1.4-.39l-7.81-31.25a.67.67 0 0 0 -1.28.36z"/><path d="m841.46 254.57a245.48 245.48 0 0 1 -2.19 52.94c-2.3 15.22-5.78 30.5-11.71 44.75-5.25 12.61-12.7 24.64-23.38 33.36-4.73 3.86-10.41 7.86-16.73 8.08-2.51.08-5.31-.48-6.8-2.7-2-3-.74-7.33.68-10.37 2.77-6 8-10.27 13.79-13.23a47.32 47.32 0 0 1 18.41-5.25c5.77-.37 12.29.35 17 4 6.1 4.81 6 12.77 3.74 19.56-2.42 7.2-6.59 14-10.92 20.21a108.47 108.47 0 0 1 -15 17.27 85.46 85.46 0 0 1 -8.72 7.29c-2.09 1.46-5.39 3.23-8 2.3-3.34-1.18-1.92-6.26-.86-8.63a19 19 0 0 1 5.86-7.1 34.18 34.18 0 0 1 8.5-4.72 31.21 31.21 0 0 1 10.68-2.59 9.56 9.56 0 0 1 8.37 4 14.5 14.5 0 0 1 2.17 8.07c0 6.43-2.92 12.53-6.84 17.5a40.41 40.41 0 0 1 -15.77 12.07 36.89 36.89 0 0 1 -9.68 2.66c-1.32.17-1.34 2.28 0 2.11 14.56-1.83 27.76-11.61 33-25.45 2.13-5.62 2.59-13.08-1-18.24-4.68-6.78-13.37-5.26-20.08-2.88-6.42 2.28-13.07 6-16.54 12.13-1.62 2.84-3 7-1.7 10.23 1.2 3 4.37 3.71 7.28 3.1 3.46-.73 6.24-2.92 8.92-5.09a108.73 108.73 0 0 0 9.22-8.34 111.84 111.84 0 0 0 15.26-19.41c4.3-6.92 8.82-14.81 9.47-23.09a16.62 16.62 0 0 0 -9.69-16.8c-6-2.72-12.89-2.82-19.25-1.74a48.66 48.66 0 0 0 -19.63 7.89c-5.7 4-10.56 9.91-11.59 17-.48 3.34.4 6.78 3.31 8.74 2.38 1.6 5.48 1.75 8.24 1.37 6.77-.92 12.74-5.35 17.76-9.72a75.3 75.3 0 0 0 14.13-16.85c8.27-13.17 13.17-28.2 16.57-43.29a247 247 0 0 0 6-57q-.07-7.1-.56-14.16c-.08-1.12-1.82-1.13-1.75 0z"/><path d="m587.71 281.48a94.84 94.84 0 0 1 132.51-72.26c7.09 3.21 14.2 7.29 19 13.58a33.33 33.33 0 0 1 6.78 20.46 41 41 0 0 1 -.48 5.65c-.14 1 1.27 1.41 1.5.41a33.91 33.91 0 0 0 -2.68-21.55c-3.35-7.19-9.15-12.58-15.92-16.56-13.65-8-29.7-12-45.48-12.27a96.21 96.21 0 0 0 -95.53 76.83c-.36 1.78-.66 3.57-.92 5.36-.12.82 1.12 1.17 1.25.35z"/><path d="m286.42 226.74a64.59 64.59 0 0 1 53.95-25 66.47 66.47 0 0 1 18.72 3.7c.93.33 1.32-1.14.41-1.48a65.37 65.37 0 0 0 -62.12 9.84 66.26 66.26 0 0 0 -12.08 12.28c-.5.66.62 1.3 1.12.65z"/><path d="m361.88 203.5a14.29 14.29 0 0 0 -.73 1.4l-.7 1.42a.76.76 0 0 0 .26 1 .75.75 0 0 0 1-.27l.65-1.48a16.85 16.85 0 0 0 .64-1.57.64.64 0 0 0 -.37-.76.63.63 0 0 0 -.79.27z"/></g><g fill="#fff"><path d="m391.79 555.89c1.42-3.56 4.21-6.23 7.14-8.59 3.4-2.74 7-5.25 10.56-7.78q11-7.82 22.35-15 6.45-4.08 13-8a.77.77 0 0 0 -.78-1.33q-12.09 7.17-23.77 15c-7.44 5-14.91 10.1-21.95 15.67-3.3 2.61-6.3 5.66-7.83 9.65-.3.8 1 1.13 1.27.35z"/><path d="m401 562.66a206.89 206.89 0 0 1 41-27.52c4.19-2.13 8.46-4 12.74-6 .79-.35.22-1.73-.59-1.4a190.61 190.61 0 0 0 -43.15 25.14q-5.56 4.25-10.85 8.88c-.61.54.29 1.43.9.9z"/><path d="m417.34 565.16a242.47 242.47 0 0 0 27.53-17.33c.77-.57.05-1.87-.76-1.31-8.91 6.21-18 12.14-27.42 17.52-.73.41-.08 1.51.65 1.12z"/><path d="m409.52 528.86 19.19 29.57c.52.8 1.81.05 1.28-.76l-19.34-29.47c-.46-.71-1.59-.05-1.13.66z"/><path d="m423.47 527.61c6.26 10 12.39 20.13 18.84 30 .53.81 1.82.07 1.3-.76-6.16-10.08-12.66-20-19-29.94-.45-.71-1.58-.05-1.13.67z"/><path d="m431.46 514.87a279.18 279.18 0 0 1 23.54 33.58.82.82 0 0 0 1.42-.83 272.1 272.1 0 0 0 -24-33.68c-.54-.65-1.45.28-.93.93z"/></g><g fill="#18c4ff"><path d="m878.7 553.42q-6.12-11.42-12.22-22.83c-1-1.89-2-3.77-3-5.66s-2.33-3.86-2.15-6c.29-3.57 5-5.65 7.65-7.28q10.44-6.5 21.46-12 5.45-2.73 11-5.19c1.86-.83 3.75-1.64 5.26.18a44 44 0 0 1 3.25 5.17q7.6 12.43 15.22 24.86a1.05 1.05 0 0 0 1.44.38l22.39-15.26a27.27 27.27 0 0 1 5.26-3.26 3.78 3.78 0 0 1 4.78 1.59 41.63 41.63 0 0 1 2.87 5.3l3.08 6 6.28 12.21a22.91 22.91 0 0 1 2.38 5.56 11.71 11.71 0 0 1 -.1 5.2c-1.79 7.41-9.37 11.94-15.46 15.58-3.3 2-6.67 3.8-10 5.8-2.5 1.53-5.92 3-6.93 6a9.06 9.06 0 0 0 .42 5.67c.68 2.1 1.42 4.18 2.13 6.27l4.41 12.94c1.3 3.81 3 8.19 1.59 12.22-1.15 3.32-4.28 5.4-7.23 7-7.68 4.2-15.68 7.9-23.5 11.82l-6 3a47.15 47.15 0 0 1 -5.86 2.72c-2 .66-4.15 1-6-.19a8.79 8.79 0 0 1 -3-3.67c-1.86-3.68-3.07-7.76-4.53-11.61l-4.8-12.66-2.35-6.22a1.11 1.11 0 0 0 -1.61-.65 180.26 180.26 0 0 1 -22.13 13.38q-2.9 1.47-5.82 2.83c-1.89.88-4.23 2-6.33 1.21-1.6-.62-2.61-2.19-3.37-3.64-1-1.79-1.72-3.7-2.54-5.56l-5.49-12.63q-1.41-3.16-2.81-6.33c-.86-1.94-2-4.23-1.25-6.38 1.13-3.27 5.41-5.1 8.16-6.74 3.48-2.07 7-4.08 10.53-6.07 8-4.51 16-8.91 23.84-13.7 1.23-.76.1-2.7-1.14-1.94-7.56 4.64-15.33 8.91-23.05 13.27-3.79 2.14-7.57 4.3-11.3 6.53-3 1.81-7 3.67-8.72 7-2 4 .69 8.41 2.33 12.09l6.13 13.8c1 2.18 1.91 4.37 2.91 6.53a14.33 14.33 0 0 0 2.85 4.38c3.34 3.2 7.5 1.54 11.12-.17a180.53 180.53 0 0 0 27.33-15.92l-1.61-.66 10.21 26.94c1.19 3.13 2.47 6.68 5.48 8.52 3.59 2.2 7.8.56 11.23-1.12 8.62-4.24 17.17-8.62 25.75-12.92 6.54-3.28 15.27-6.68 15.32-15.32 0-4.39-1.82-8.65-3.21-12.73q-2.32-6.82-4.66-13.64c-.69-2.05-2-4.67-1.32-6.87.54-1.71 2.28-2.6 3.71-3.46 3.46-2.07 6.92-4.12 10.41-6.15a86.7 86.7 0 0 0 10-6.61c3-2.36 5.73-5 7.28-8.57a14.45 14.45 0 0 0 .64-10.58 46 46 0 0 0 -2.87-5.91l-3.31-6.43q-3.36-6.56-6.73-13.1c-1.56-3-3.71-6.3-7.64-5.51-2 .4-3.73 1.69-5.39 2.82l-5.91 4-12 8.19-5.91 4 1.44.38q-7.35-12-14.71-24c-1.16-1.89-2.23-3.88-3.52-5.68a5.23 5.23 0 0 0 -4-2.53c-1.91-.07-3.77 1-5.47 1.76q-3.09 1.39-6.15 2.87a266.74 266.74 0 0 0 -23.43 12.78c-1.82 1.12-3.64 2.24-5.42 3.42a14 14 0 0 0 -3.8 3.38c-2.53 3.58-.22 7.4 1.61 10.7q7.74 13.89 15.45 27.8c.41.74 1.53.08 1.13-.66z"/><path d="m70 552.88q-6.13-11.42-12.23-22.83l-3-5.66c-1-1.82-2.32-3.86-2.14-6 .29-3.56 5-5.65 7.65-7.28q10.44-6.49 21.46-12 5.44-2.73 11-5.19c1.86-.83 3.75-1.64 5.26.19a44.34 44.34 0 0 1 3.25 5.16q7.59 12.44 15.21 24.87a1.08 1.08 0 0 0 1.45.38l22.43-15.26a27.84 27.84 0 0 1 5.27-3.26 3.78 3.78 0 0 1 4.78 1.59 41.63 41.63 0 0 1 2.87 5.3l3.08 6 6.27 12.21a23 23 0 0 1 2.39 5.56 11.85 11.85 0 0 1 -.11 5.2c-1.79 7.41-9.37 11.94-15.46 15.58-3.29 2-6.66 3.8-9.94 5.8-2.51 1.53-5.92 3-6.93 6a9.13 9.13 0 0 0 .41 5.67c.69 2.1 1.43 4.18 2.14 6.27l4.41 12.94c1.3 3.82 3 8.2 1.58 12.22-1.15 3.33-4.28 5.4-7.22 7-7.68 4.2-15.68 7.9-23.51 11.82l-5.95 3a47.28 47.28 0 0 1 -5.87 2.72c-2 .66-4.14.95-6-.19a8.72 8.72 0 0 1 -3-3.67c-1.86-3.68-3.08-7.76-4.54-11.6l-4.79-12.67-2.36-6.21a1.1 1.1 0 0 0 -1.6-.66 180.38 180.38 0 0 1 -22.14 13.38q-2.88 1.47-5.82 2.83c-1.89.88-4.22 2-6.33 1.21-1.6-.62-2.6-2.19-3.37-3.63-1-1.8-1.71-3.71-2.54-5.56l-5.62-12.68-2.82-6.33c-.86-1.94-2-4.23-1.25-6.38 1.14-3.27 5.41-5.1 8.16-6.74 3.48-2.07 7-4.08 10.53-6.07 8-4.51 16-8.91 23.84-13.7 1.23-.76.1-2.7-1.13-1.94-7.56 4.64-15.34 8.91-23.06 13.27-3.78 2.14-7.56 4.3-11.3 6.53-3 1.82-7 3.68-8.72 7-2.05 4 .7 8.41 2.33 12.09l6.14 13.8c1 2.18 1.91 4.37 2.91 6.53a14 14 0 0 0 2.85 4.39c3.33 3.19 7.49 1.53 11.12-.18a179.11 179.11 0 0 0 27.32-15.92l-1.6-.65 10.18 26.87c1.18 3.13 2.46 6.68 5.47 8.52 3.6 2.2 7.8.56 11.23-1.12 8.62-4.24 17.17-8.61 25.76-12.92 6.54-3.28 15.26-6.68 15.32-15.32 0-4.39-1.82-8.65-3.22-12.73l-4.65-13.64c-.7-2.05-2-4.67-1.33-6.87.54-1.71 2.28-2.59 3.72-3.46q5.17-3.11 10.4-6.15a83.37 83.37 0 0 0 10-6.61c3-2.36 5.73-5.05 7.29-8.57a14.45 14.45 0 0 0 .64-10.58 47.94 47.94 0 0 0 -2.87-5.9l-3.31-6.44-6.74-13.1c-1.56-3-3.71-6.3-7.63-5.51-2 .4-3.73 1.69-5.39 2.82l-5.91 4-12 8.19-5.91 4 1.45.38q-7.36-12-14.71-24c-1.16-1.89-2.24-3.88-3.53-5.68a5.21 5.21 0 0 0 -4-2.53c-1.92-.07-3.78 1-5.47 1.76q-3.1 1.4-6.16 2.87a264.07 264.07 0 0 0 -23.39 12.84c-1.82 1.11-3.64 2.23-5.42 3.41a13.67 13.67 0 0 0 -3.8 3.38c-2.54 3.58-.23 7.4 1.61 10.7q7.74 13.89 15.44 27.8c.41.74 1.54.08 1.14-.66z"/><path d="m851.64 204.44q-6.12-11.41-12.22-22.83c-1-1.88-2-3.77-3-5.65s-2.33-3.87-2.15-6c.29-3.56 5-5.65 7.65-7.28q10.44-6.5 21.46-12 5.45-2.72 11-5.19c1.86-.82 3.75-1.64 5.26.19a43 43 0 0 1 3.25 5.16q7.61 12.45 15.22 24.87a1.06 1.06 0 0 0 1.44.38l22.45-15.27a27.32 27.32 0 0 1 5.26-3.27 3.79 3.79 0 0 1 4.78 1.59 42.32 42.32 0 0 1 2.87 5.3l3.08 6 6.28 12.21a22.68 22.68 0 0 1 2.38 5.55 11.75 11.75 0 0 1 -.1 5.21c-1.79 7.4-9.37 11.93-15.46 15.57-3.3 2-6.67 3.81-10 5.81-2.5 1.53-5.92 3-6.93 6a9.05 9.05 0 0 0 .42 5.67c.68 2.1 1.42 4.19 2.13 6.28l4.41 12.93c1.3 3.82 3 8.2 1.59 12.22-1.15 3.33-4.28 5.41-7.23 7-7.67 4.21-15.68 7.9-23.5 11.83l-6 3a45.75 45.75 0 0 1 -5.86 2.72c-2 .66-4.15.95-6-.19a8.67 8.67 0 0 1 -3-3.67c-1.86-3.67-3.07-7.75-4.53-11.6l-4.8-12.67-2.35-6.21a1.11 1.11 0 0 0 -1.61-.66 180.26 180.26 0 0 1 -22.13 13.38c-1.93 1-3.87 1.93-5.82 2.83s-4.23 2-6.33 1.21c-1.6-.61-2.61-2.19-3.37-3.63-1-1.8-1.72-3.7-2.54-5.56l-5.55-12.67q-1.41-3.18-2.81-6.34c-.86-1.94-2-4.23-1.25-6.38 1.13-3.26 5.41-5.09 8.16-6.73 3.48-2.08 7-4.09 10.53-6.08 8-4.51 16-8.9 23.84-13.7 1.23-.76.1-2.7-1.14-1.94-7.56 4.64-15.33 8.92-23 13.28-3.79 2.14-7.57 4.29-11.3 6.52-3.05 1.82-7 3.68-8.72 7-2.05 4 .69 8.41 2.33 12.09l6.13 13.8c1 2.17 1.91 4.36 2.91 6.53a14.33 14.33 0 0 0 2.85 4.38c3.34 3.2 7.5 1.53 11.12-.17a180.59 180.59 0 0 0 27.26-15.95l-1.61-.65 10.21 26.94c1.19 3.13 2.47 6.67 5.48 8.51 3.59 2.2 7.8.57 11.23-1.12 8.62-4.24 17.17-8.61 25.75-12.92 6.55-3.28 15.27-6.67 15.32-15.32 0-4.39-1.82-8.65-3.21-12.73q-2.33-6.83-4.66-13.64c-.69-2-2-4.67-1.32-6.86.54-1.72 2.28-2.6 3.71-3.46 3.46-2.08 6.92-4.12 10.41-6.15a85.49 85.49 0 0 0 10-6.62c3-2.35 5.73-5 7.28-8.56a14.48 14.48 0 0 0 .64-10.59 45.86 45.86 0 0 0 -2.87-5.9l-3.31-6.44-6.73-13.1c-1.56-3-3.71-6.29-7.64-5.51a15.56 15.56 0 0 0 -5.39 2.82l-5.91 4-12 8.19-5.91 4 1.44.38q-7.35-12-14.71-24c-1.16-1.9-2.23-3.89-3.52-5.69a5.22 5.22 0 0 0 -4-2.52c-1.91-.08-3.77 1-5.47 1.76-2.06.93-4.11 1.88-6.15 2.87a264.14 264.14 0 0 0 -23.43 12.78c-1.82 1.11-3.64 2.23-5.42 3.41a14 14 0 0 0 -3.8 3.38c-2.53 3.59-.22 7.41 1.61 10.7q7.74 13.89 15.45 27.8c.41.74 1.53.08 1.13-.66z"/></g></svg>