<svg width="40" height="40" viewBox="0 0 40 40" fill="none" xmlns="http://www.w3.org/2000/svg">
<path d="M15.5534 17.7779C15.5534 16.9024 15.7259 16.0355 16.0609 15.2267C16.3959 14.4178 16.887 13.6829 17.5061 13.0638C18.1251 12.4448 18.8601 11.9537 19.6689 11.6187C20.4777 11.2836 21.3447 11.1112 22.2201 11.1112C23.0956 11.1112 23.9625 11.2836 24.7714 11.6187C25.5802 11.9537 26.3152 12.4448 26.9342 13.0638C27.5533 13.6829 28.0444 14.4178 28.3794 15.2267C28.7144 16.0355 28.8869 16.9024 28.8869 17.7779C28.8869 19.546 28.1845 21.2417 26.9342 22.492C25.684 23.7422 23.9883 24.4446 22.2201 24.4446C20.452 24.4446 18.7563 23.7422 17.5061 22.492C16.2558 21.2417 15.5534 19.546 15.5534 17.7779ZM22.2201 13.3334C21.0414 13.3334 19.9109 13.8017 19.0774 14.6352C18.2439 15.4687 17.7757 16.5992 17.7757 17.7779C17.7757 18.9566 18.2439 20.0871 19.0774 20.9206C19.9109 21.7541 21.0414 22.2224 22.2201 22.2224C23.3989 22.2224 24.5294 21.7541 25.3629 20.9206C26.1964 20.0871 26.6646 18.9566 26.6646 17.7779C26.6646 16.5992 26.1964 15.4687 25.3629 14.6352C24.5294 13.8017 23.3989 13.3334 22.2201 13.3334ZM17.7757 1.11112C17.7757 0.816432 17.6586 0.533814 17.4502 0.325439C17.2419 0.117064 16.9592 0 16.6646 0C16.3699 0 16.0872 0.117064 15.8789 0.325439C15.6705 0.533814 15.5534 0.816432 15.5534 1.11112V4.44447H14.4423C12.9689 4.44447 11.5558 5.02979 10.5139 6.07167C9.47204 7.11355 8.88672 8.52663 8.88672 10.0001V11.1112H5.55337C5.25868 11.1112 4.97606 11.2283 4.76769 11.4366C4.55931 11.645 4.44225 11.9276 4.44225 12.2223C4.44225 12.517 4.55931 12.7996 4.76769 13.008C4.97606 13.2164 5.25868 13.3334 5.55337 13.3334H8.88672V16.6668H5.55337C5.36131 16.6667 5.1725 16.7164 5.00538 16.8111C4.83826 16.9057 4.69852 17.0421 4.5998 17.2068C4.50109 17.3716 4.44676 17.5591 4.44213 17.7511C4.43749 17.9431 4.48271 18.133 4.57336 18.3023C5.60506 17.9542 6.68674 17.777 7.7756 17.7779C8.9445 17.7779 10.0645 17.9779 11.109 18.3468V10.0001C11.109 9.11601 11.4602 8.26815 12.0853 7.64303C12.7104 7.0179 13.5583 6.66671 14.4423 6.66671H29.998C30.882 6.66671 31.7299 7.0179 32.355 7.64303C32.9801 8.26815 33.3313 9.11601 33.3313 10.0001V25.5557C33.3313 26.4398 32.9801 27.2876 32.355 27.9128C31.7299 28.5379 30.882 28.8891 29.998 28.8891H17.7157C17.6311 29.647 17.4596 30.3926 17.2046 31.1113H21.109V34.4447C21.109 34.7394 21.2261 35.022 21.4345 35.2304C21.6428 35.4387 21.9255 35.5558 22.2201 35.5558C22.5148 35.5558 22.7975 35.4387 23.0058 35.2304C23.2142 35.022 23.3313 34.7394 23.3313 34.4447V31.1113H26.6646V34.4447C26.6646 34.7394 26.7817 35.022 26.9901 35.2304C27.1984 35.4387 27.4811 35.5558 27.7757 35.5558C28.0704 35.5558 28.353 35.4387 28.5614 35.2304C28.7698 35.022 28.8869 34.7394 28.8869 34.4447V31.1113H29.998C31.4714 31.1113 32.8845 30.526 33.9264 29.4841C34.9683 28.4423 35.5536 27.0292 35.5536 25.5557V24.4446H38.8869C39.1816 24.4446 39.4642 24.3275 39.6726 24.1192C39.881 23.9108 39.998 23.6282 39.998 23.3335C39.998 23.0388 39.881 22.7562 39.6726 22.5478C39.4642 22.3394 39.1816 22.2224 38.8869 22.2224H35.5536V18.889H38.8869C39.1816 18.889 39.4642 18.772 39.6726 18.5636C39.881 18.3552 39.998 18.0726 39.998 17.7779C39.998 17.4832 39.881 17.2006 39.6726 16.9922C39.4642 16.7838 39.1816 16.6668 38.8869 16.6668H35.5536V13.3334H38.8869C39.1816 13.3334 39.4642 13.2164 39.6726 13.008C39.881 12.7996 39.998 12.517 39.998 12.2223C39.998 11.9276 39.881 11.645 39.6726 11.4366C39.4642 11.2283 39.1816 11.1112 38.8869 11.1112H35.5536V10.0001C35.5536 8.52663 34.9683 7.11355 33.9264 6.07167C32.8845 5.02979 31.4714 4.44447 29.998 4.44447H28.8869V1.11112C28.8869 0.816432 28.7698 0.533814 28.5614 0.325439C28.353 0.117064 28.0704 0 27.7757 0C27.4811 0 27.1984 0.117064 26.9901 0.325439C26.7817 0.533814 26.6646 0.816432 26.6646 1.11112V4.44447H23.3313V1.11112C23.3313 0.816432 23.2142 0.533814 23.0058 0.325439C22.7975 0.117064 22.5148 0 22.2201 0C21.9255 0 21.6428 0.117064 21.4345 0.325439C21.2261 0.533814 21.109 0.816432 21.109 1.11112V4.44447H17.7757V1.11112ZM7.7756 35.5558C9.52228 35.5558 11.1356 34.978 12.4334 34.0069L18.1001 39.6736C18.3085 39.8822 18.5912 39.9996 18.886 39.9998C19.1809 40 19.4637 39.8831 19.6724 39.6747C19.881 39.4664 19.9983 39.1837 19.9985 38.8888C19.9987 38.594 19.8818 38.3111 19.6735 38.1025L14.0068 32.4358C15.0557 31.033 15.6004 29.3173 15.5528 27.5664C15.5052 25.8156 14.8679 24.132 13.7443 22.7884C12.6207 21.4448 11.0764 20.5197 9.36156 20.1631C7.64672 19.8064 5.86169 20.039 4.29552 20.8232C2.72934 21.6075 1.47371 22.8973 0.731934 24.484C-0.00984351 26.0708 -0.194337 27.8614 0.208325 29.566C0.610987 31.2706 1.57723 32.7895 2.9506 33.8765C4.32397 34.9636 6.02407 35.5553 7.7756 35.5558ZM7.7756 33.3336C6.30217 33.3336 4.88908 32.7482 3.84721 31.7064C2.80533 30.6645 2.22001 29.2514 2.22001 27.778C2.22001 26.3045 2.80533 24.8914 3.84721 23.8496C4.88908 22.8077 6.30217 22.2224 7.7756 22.2224C9.24904 22.2224 10.6621 22.8077 11.704 23.8496C12.7459 24.8914 13.3312 26.3045 13.3312 27.778C13.3312 29.2514 12.7459 30.6645 11.704 31.7064C10.6621 32.7482 9.24904 33.3336 7.7756 33.3336Z" fill="#18C4FF"/>
</svg>
