<svg width="24" height="24" viewBox="0 0 24 24" fill="none" xmlns="http://www.w3.org/2000/svg">
<path d="M7.95702 11.9346C7.95702 9.73756 9.73756 7.95606 11.9346 7.95606C14.1316 7.95606 15.9131 9.73756 15.9131 11.9346C15.9131 14.1316 14.1316 15.9131 11.9346 15.9131C9.73756 15.9131 7.95702 14.1316 7.95702 11.9346ZM5.80629 11.9346C5.80629 15.3192 8.54989 18.0628 11.9346 18.0628C15.3192 18.0628 18.0628 15.3192 18.0628 11.9346C18.0628 8.54989 15.3192 5.80629 11.9346 5.80629C8.54989 5.80629 5.80629 8.54989 5.80629 11.9346ZM16.8732 5.56336C16.8732 6.35385 17.5143 6.99589 18.3058 6.99589C19.0963 6.99589 19.7383 6.35385 19.7383 5.56336C19.7383 4.77286 19.0972 4.13179 18.3058 4.13179C17.5143 4.13179 16.8732 4.77286 16.8732 5.56336ZM7.11254 21.649C5.94897 21.596 5.31657 21.4022 4.89626 21.2383C4.33905 21.0214 3.94188 20.7631 3.52349 20.3456C3.10607 19.9282 2.84675 19.531 2.63081 18.9738C2.46693 18.5535 2.27316 17.9211 2.22014 16.7576C2.1623 15.4995 2.15073 15.1216 2.15073 11.9346C2.15073 8.74752 2.16326 8.37058 2.22014 7.11157C2.27316 5.948 2.46789 5.31657 2.63081 4.89529C2.84771 4.33809 3.10607 3.94091 3.52349 3.52253C3.94091 3.10511 4.33809 2.84579 4.89626 2.62985C5.31657 2.46596 5.94897 2.27219 7.11254 2.21917C8.37058 2.16133 8.74848 2.14976 11.9346 2.14976C15.1216 2.14976 15.4985 2.1623 16.7576 2.21917C17.9211 2.27219 18.5526 2.46693 18.9738 2.62985C19.531 2.84579 19.9282 3.10511 20.3466 3.52253C20.764 3.93995 21.0224 4.33809 21.2393 4.89529C21.4032 5.31561 21.5969 5.948 21.65 7.11157C21.7078 8.37058 21.7194 8.74752 21.7194 11.9346C21.7194 15.1207 21.7078 15.4985 21.65 16.7576C21.5969 17.9211 21.4022 18.5535 21.2393 18.9738C21.0224 19.531 20.764 19.9282 20.3466 20.3456C19.9292 20.7631 19.531 21.0214 18.9738 21.2383C18.5535 21.4022 17.9211 21.596 16.7576 21.649C15.4995 21.7068 15.1216 21.7184 11.9346 21.7184C8.74848 21.7184 8.37058 21.7068 7.11254 21.649ZM7.01421 0.0723015C5.74363 0.130143 4.87601 0.331623 4.11733 0.626613C3.33262 0.931243 2.66744 1.33999 2.00323 2.00323C1.33999 2.66648 0.931243 3.33165 0.626613 4.11733C0.331623 4.87601 0.130143 5.74363 0.0723015 7.01421C0.0134963 8.28671 0 8.69353 0 11.9346C0 15.1756 0.0134963 15.5824 0.0723015 16.8549C0.130143 18.1255 0.331623 18.9931 0.626613 19.7518C0.931243 20.5365 1.33902 21.2027 2.00323 21.8659C2.66648 22.5291 3.33165 22.9369 4.11733 23.2425C4.87698 23.5375 5.74363 23.739 7.01421 23.7968C8.28768 23.8547 8.69353 23.8691 11.9346 23.8691C15.1766 23.8691 15.5824 23.8556 16.8549 23.7968C18.1255 23.739 18.9931 23.5375 19.7518 23.2425C20.5365 22.9369 21.2017 22.5291 21.8659 21.8659C22.5291 21.2027 22.9369 20.5365 23.2425 19.7518C23.5375 18.9931 23.74 18.1255 23.7968 16.8549C23.8547 15.5815 23.8682 15.1756 23.8682 11.9346C23.8682 8.69353 23.8547 8.28671 23.7968 7.01421C23.739 5.74363 23.5375 4.87601 23.2425 4.11733C22.9369 3.33262 22.5291 2.66744 21.8659 2.00323C21.2027 1.33999 20.5365 0.931243 19.7528 0.626613C18.9931 0.331623 18.1255 0.129179 16.8559 0.0723015C15.5834 0.0144603 15.1766 0 11.9355 0C8.69353 0 8.28768 0.0134963 7.01421 0.0723015Z" fill="#2A2F32"/>
</svg>
