<svg width="103" height="28" viewBox="0 0 103 28" fill="none" xmlns="http://www.w3.org/2000/svg">
<path d="M29.312 6.16C31.2 6.16 32.664 6.608 33.704 7.504C34.76 8.384 35.288 9.56 35.288 11.032C35.288 12.648 34.768 13.88 33.728 14.728C32.688 15.576 31.224 16 29.336 16L28.952 16.216H25.808V22H21.752V6.16H29.312ZM28.736 13.288C29.536 13.288 30.136 13.128 30.536 12.808C30.936 12.488 31.136 11.976 31.136 11.272C31.136 10.584 30.936 10.08 30.536 9.76C30.136 9.44 29.536 9.28 28.736 9.28H25.808V13.288H28.736ZM31.16 14.152L36.224 22H31.664L27.608 15.064L31.16 14.152ZM43.5588 9.76C44.8228 9.76 45.9268 10.008 46.8708 10.504C47.8308 10.984 48.5748 11.696 49.1028 12.64C49.6468 13.568 49.9188 14.688 49.9188 16C49.9188 17.312 49.6468 18.44 49.1028 19.384C48.5748 20.312 47.8308 21.024 46.8708 21.52C45.9268 22 44.8228 22.24 43.5588 22.24C42.3268 22.24 41.2308 22 40.2708 21.52C39.3108 21.024 38.5588 20.312 38.0148 19.384C37.4868 18.44 37.2228 17.312 37.2228 16C37.2228 14.688 37.4868 13.568 38.0148 12.64C38.5588 11.696 39.3108 10.984 40.2708 10.504C41.2308 10.008 42.3268 9.76 43.5588 9.76ZM43.5588 12.664C43.0948 12.664 42.6948 12.776 42.3588 13C42.0228 13.224 41.7668 13.584 41.5908 14.08C41.4148 14.576 41.3268 15.216 41.3268 16C41.3268 16.784 41.4148 17.424 41.5908 17.92C41.7668 18.4 42.0228 18.76 42.3588 19C42.6948 19.224 43.0948 19.336 43.5588 19.336C44.0388 19.336 44.4468 19.224 44.7828 19C45.1188 18.76 45.3748 18.4 45.5508 17.92C45.7268 17.424 45.8148 16.784 45.8148 16C45.8148 15.216 45.7268 14.576 45.5508 14.08C45.3748 13.584 45.1188 13.224 44.7828 13C44.4468 12.776 44.0388 12.664 43.5588 12.664ZM57.902 9.76C59.118 9.76 60.126 9.936 60.926 10.288C61.742 10.624 62.374 11.08 62.822 11.656C63.286 12.216 63.574 12.824 63.686 13.48L59.918 14.728C59.806 14.04 59.598 13.528 59.294 13.192C59.006 12.84 58.582 12.664 58.022 12.664C57.51 12.664 57.078 12.784 56.726 13.024C56.39 13.248 56.134 13.616 55.958 14.128C55.782 14.624 55.694 15.264 55.694 16.048C55.694 16.832 55.79 17.472 55.982 17.968C56.174 18.448 56.446 18.8 56.798 19.024C57.15 19.232 57.566 19.336 58.046 19.336C58.446 19.336 58.774 19.264 59.03 19.12C59.302 18.96 59.526 18.736 59.702 18.448C59.878 18.16 59.99 17.808 60.038 17.392L63.71 18.568C63.598 19.272 63.294 19.904 62.798 20.464C62.318 21.008 61.678 21.44 60.878 21.76C60.078 22.08 59.142 22.24 58.07 22.24C56.758 22.24 55.614 22 54.638 21.52C53.662 21.024 52.91 20.312 52.382 19.384C51.854 18.44 51.59 17.312 51.59 16C51.59 14.688 51.854 13.568 52.382 12.64C52.91 11.696 53.646 10.984 54.59 10.504C55.55 10.008 56.654 9.76 57.902 9.76ZM79.0072 10L73.2472 16.144L72.4792 16.36L69.0472 20.2L69.0232 16.024L74.4712 10H79.0072ZM69.9112 4.912V22H65.8312V4.912H69.9112ZM73.8712 13.6L79.2712 22H74.7592L71.2072 16L73.8712 13.6ZM85.9841 22.24C84.6561 22.24 83.5041 21.992 82.5281 21.496C81.5681 21 80.8241 20.288 80.2961 19.36C79.7681 18.432 79.5041 17.312 79.5041 16C79.5041 14.688 79.7681 13.568 80.2961 12.64C80.8241 11.712 81.5601 11 82.5041 10.504C83.4641 10.008 84.5601 9.76 85.7921 9.76C87.0561 9.76 88.1281 10.008 89.0081 10.504C89.9041 10.984 90.5841 11.656 91.0481 12.52C91.5121 13.368 91.7441 14.344 91.7441 15.448C91.7441 15.736 91.7361 16.024 91.7201 16.312C91.7041 16.6 91.6801 16.84 91.6481 17.032H82.1441V14.848H89.8481L87.9041 15.592C87.9041 14.632 87.7281 13.896 87.3761 13.384C87.0401 12.872 86.5121 12.616 85.7921 12.616C85.2801 12.616 84.8401 12.736 84.4721 12.976C84.1201 13.216 83.8481 13.592 83.6561 14.104C83.4801 14.616 83.3921 15.272 83.3921 16.072C83.3921 16.856 83.4961 17.496 83.7041 17.992C83.9121 18.472 84.2081 18.824 84.5921 19.048C84.9761 19.256 85.4401 19.36 85.9841 19.36C86.5921 19.36 87.0721 19.24 87.4241 19C87.7921 18.76 88.0641 18.424 88.2401 17.992L91.5041 19.072C91.2801 19.76 90.8881 20.344 90.3281 20.824C89.7841 21.288 89.1281 21.64 88.3601 21.88C87.6081 22.12 86.8161 22.24 85.9841 22.24ZM98.9019 6.184V17.728C98.9019 18.304 99.0379 18.72 99.3099 18.976C99.5979 19.216 99.9899 19.336 100.486 19.336C100.87 19.336 101.198 19.296 101.47 19.216C101.758 19.12 102.014 18.984 102.238 18.808L102.67 21.328C102.27 21.616 101.766 21.84 101.158 22C100.55 22.16 99.9259 22.24 99.2859 22.24C98.3739 22.24 97.5819 22.112 96.9099 21.856C96.2539 21.6 95.7419 21.192 95.3739 20.632C95.0219 20.072 94.8379 19.328 94.8219 18.4V7.312L98.9019 6.184ZM102.478 10V12.904H92.7579V10H102.478Z" fill="#2A2F32"/>
<rect y="2" width="3" height="20" fill="#2A2F32"/>
<rect x="5" y="15" width="3" height="7" fill="#2A2F32"/>
<rect x="10" y="15" width="3" height="7" fill="#2A2F32"/>
</svg>
